<svg width="32" height="32" viewBox="0 0 32 32" fill="none" xmlns="http://www.w3.org/2000/svg">
<g clip-path="url(#clip0_5563_88881)">
<path d="M24 5.33325H7.99998C6.52722 5.33325 5.33331 6.52716 5.33331 7.99992V23.9999C5.33331 25.4727 6.52722 26.6666 7.99998 26.6666H24C25.4727 26.6666 26.6666 25.4727 26.6666 23.9999V7.99992C26.6666 6.52716 25.4727 5.33325 24 5.33325Z" stroke="white" stroke-width="2.66667" stroke-linecap="round" stroke-linejoin="round"/>
<path d="M10.6667 14.6667V21.3334" stroke="white" stroke-width="2.66667" stroke-linecap="round" stroke-linejoin="round"/>
<path d="M10.6667 10.6667V10.6801" stroke="white" stroke-width="2.66667" stroke-linecap="round" stroke-linejoin="round"/>
<path d="M16 21.3334V14.6667" stroke="white" stroke-width="2.66667" stroke-linecap="round" stroke-linejoin="round"/>
<path d="M21.3333 21.3334V17.3334C21.3333 16.6262 21.0524 15.9479 20.5523 15.4478C20.0522 14.9477 19.3739 14.6667 18.6667 14.6667C17.9594 14.6667 17.2811 14.9477 16.781 15.4478C16.281 15.9479 16 16.6262 16 17.3334" stroke="white" stroke-width="2.66667" stroke-linecap="round" stroke-linejoin="round"/>
</g>
<defs>
<clipPath id="clip0_5563_88881">
<rect width="32" height="32" fill="white"/>
</clipPath>
</defs>
</svg>
