<svg width="25" height="24" viewBox="0 0 25 24" fill="none" xmlns="http://www.w3.org/2000/svg">
<g clip-path="url(#clip0_4929_7306)">
<path d="M3.25 21L4.9 17.2C3.63766 15.408 3.07267 13.217 3.31104 11.0381C3.54942 8.85915 4.57479 6.84211 6.19471 5.36549C7.81463 3.88887 9.91775 3.05418 12.1094 3.01807C14.301 2.98195 16.4305 3.7469 18.0982 5.16934C19.7659 6.59179 20.8571 8.57395 21.1672 10.7438C21.4772 12.9137 20.9847 15.1222 19.7821 16.9547C18.5795 18.7873 16.7494 20.118 14.6354 20.6971C12.5213 21.2762 10.2686 21.0639 8.3 20.1L3.25 21" stroke="#0F1721" stroke-width="2" stroke-linecap="round" stroke-linejoin="round"/>
<path d="M9.25 10C9.25 10.1326 9.30268 10.2598 9.39645 10.3536C9.49021 10.4473 9.61739 10.5 9.75 10.5C9.88261 10.5 10.0098 10.4473 10.1036 10.3536C10.1973 10.2598 10.25 10.1326 10.25 10V9C10.25 8.86739 10.1973 8.74021 10.1036 8.64645C10.0098 8.55268 9.88261 8.5 9.75 8.5C9.61739 8.5 9.49021 8.55268 9.39645 8.64645C9.30268 8.74021 9.25 8.86739 9.25 9V10ZM9.25 10C9.25 11.3261 9.77678 12.5979 10.7145 13.5355C11.6521 14.4732 12.9239 15 14.25 15H15.25C15.3826 15 15.5098 14.9473 15.6036 14.8536C15.6973 14.7598 15.75 14.6326 15.75 14.5C15.75 14.3674 15.6973 14.2402 15.6036 14.1464C15.5098 14.0527 15.3826 14 15.25 14H14.25C14.1174 14 13.9902 14.0527 13.8964 14.1464C13.8027 14.2402 13.75 14.3674 13.75 14.5C13.75 14.6326 13.8027 14.7598 13.8964 14.8536C13.9902 14.9473 14.1174 15 14.25 15" stroke="#0F1721" stroke-width="2" stroke-linecap="round" stroke-linejoin="round"/>
</g>
<defs>
<clipPath id="clip0_4929_7306">
<rect width="24" height="24" fill="white" transform="translate(0.25)"/>
</clipPath>
</defs>
</svg>
