<svg width="25" height="24" viewBox="0 0 25 24" fill="none" xmlns="http://www.w3.org/2000/svg">
<g clip-path="url(#clip0_4929_7304)">
<path d="M18.5 4H6.5C5.39543 4 4.5 4.89543 4.5 6V18C4.5 19.1046 5.39543 20 6.5 20H18.5C19.6046 20 20.5 19.1046 20.5 18V6C20.5 4.89543 19.6046 4 18.5 4Z" stroke="#0F1721" stroke-width="2" stroke-linecap="round" stroke-linejoin="round"/>
<path d="M8.5 11V16" stroke="#0F1721" stroke-width="2" stroke-linecap="round" stroke-linejoin="round"/>
<path d="M8.5 8V8.01" stroke="#0F1721" stroke-width="2" stroke-linecap="round" stroke-linejoin="round"/>
<path d="M12.5 16V11" stroke="#0F1721" stroke-width="2" stroke-linecap="round" stroke-linejoin="round"/>
<path d="M16.5 16V13C16.5 12.4696 16.2893 11.9609 15.9142 11.5858C15.5391 11.2107 15.0304 11 14.5 11C13.9696 11 13.4609 11.2107 13.0858 11.5858C12.7107 11.9609 12.5 12.4696 12.5 13" stroke="#0F1721" stroke-width="2" stroke-linecap="round" stroke-linejoin="round"/>
</g>
<defs>
<clipPath id="clip0_4929_7304">
<rect width="24" height="24" fill="white" transform="translate(0.5)"/>
</clipPath>
</defs>
</svg>
