<svg width="32" height="32" viewBox="0 0 32 32" fill="none" xmlns="http://www.w3.org/2000/svg">
<rect width="32" height="32" rx="8" fill="#F5F5F5"/>
<g clip-path="url(#clip0_6124_29805)">
<path d="M7 11L9 7H23L25 11M7 11V12C7 12.7956 7.31607 13.5587 7.87868 14.1213C8.44129 14.6839 9.20435 15 10 15C10.7956 15 11.5587 14.6839 12.1213 14.1213C12.6839 13.5587 13 12.7956 13 12M7 11H13M25 11H19M25 11V12C25 12.7956 24.6839 13.5587 24.1213 14.1213C23.5587 14.6839 22.7956 15 22 15C21.2044 15 20.4413 14.6839 19.8787 14.1213C19.3161 13.5587 19 12.7956 19 12M13 12C13 12.7956 13.3161 13.5587 13.8787 14.1213C14.4413 14.6839 15.2044 15 16 15C16.7956 15 17.5587 14.6839 18.1213 14.1213C18.6839 13.5587 19 12.7956 19 12M13 12V11M19 12V11M19 11H13" stroke="#0F1721" stroke-width="2" stroke-linecap="round" stroke-linejoin="round"/>
<path fill-rule="evenodd" clip-rule="evenodd" d="M10 15C10.7956 15 11.5587 14.6839 12.1213 14.1213C12.6839 13.5587 13 12.7956 13 12C13 12.7956 13.3161 13.5587 13.8787 14.1213C14.4413 14.6839 15.2044 15 16 15C16.7956 15 17.5587 14.6839 18.1213 14.1213C18.6839 13.5587 19 12.7956 19 12C19 12.7956 19.3161 13.5587 19.8787 14.1213C20.4413 14.6839 21.2044 15 22 15C22.3439 15 22.6818 14.9409 23 14.8284V17V25H19V21C19 20.4696 18.7893 19.9609 18.4142 19.5858C18.0391 19.2107 17.5304 19 17 19H15C14.4696 19 13.9609 19.2107 13.5858 19.5858C13.2107 19.9609 13 20.4696 13 21V25H9V14.8284C9.3182 14.9409 9.65606 15 10 15Z" fill="white"/>
<path d="M14 12C14 11.4477 13.5523 11 13 11C12.4477 11 12 11.4477 12 12H14ZM20 12C20 11.4477 19.5523 11 19 11C18.4477 11 18 11.4477 18 12H20ZM23 14.8284H24C24 14.5038 23.8424 14.1994 23.5773 14.0119C23.3123 13.8245 22.9727 13.7774 22.6666 13.8856L23 14.8284ZM23 25V26C23.5523 26 24 25.5523 24 25H23ZM19 25H18C18 25.5523 18.4477 26 19 26V25ZM18.4142 19.5858L17.7071 20.2929H17.7071L18.4142 19.5858ZM13.5858 19.5858L14.2929 20.2929L14.2929 20.2929L13.5858 19.5858ZM13 25V26C13.5523 26 14 25.5523 14 25H13ZM9 25H8C8 25.5523 8.44772 26 9 26V25ZM9 14.8284L9.33335 13.8856C9.02728 13.7774 8.68772 13.8245 8.42266 14.0119C8.15759 14.1994 8 14.5038 8 14.8284H9ZM11.4142 13.4142C11.0391 13.7893 10.5304 14 10 14V16C11.0609 16 12.0783 15.5786 12.8284 14.8284L11.4142 13.4142ZM12 12C12 12.5304 11.7893 13.0391 11.4142 13.4142L12.8284 14.8284C13.5786 14.0783 14 13.0609 14 12H12ZM14.5858 13.4142C14.2107 13.0391 14 12.5304 14 12H12C12 13.0609 12.4214 14.0783 13.1716 14.8284L14.5858 13.4142ZM16 14C15.4696 14 14.9609 13.7893 14.5858 13.4142L13.1716 14.8284C13.9217 15.5786 14.9391 16 16 16V14ZM17.4142 13.4142C17.0391 13.7893 16.5304 14 16 14V16C17.0609 16 18.0783 15.5786 18.8284 14.8284L17.4142 13.4142ZM18 12C18 12.5304 17.7893 13.0391 17.4142 13.4142L18.8284 14.8284C19.5786 14.0783 20 13.0609 20 12H18ZM20.5858 13.4142C20.2107 13.0391 20 12.5304 20 12H18C18 13.0609 18.4214 14.0783 19.1716 14.8284L20.5858 13.4142ZM22 14C21.4696 14 20.9609 13.7893 20.5858 13.4142L19.1716 14.8284C19.9217 15.5786 20.9391 16 22 16V14ZM22.6666 13.8856C22.4545 13.9606 22.2293 14 22 14V16C22.4586 16 22.9091 15.9212 23.3334 15.7712L22.6666 13.8856ZM24 17V14.8284H22V17H24ZM24 25V17H22V25H24ZM19 26H23V24H19V26ZM18 21V25H20V21H18ZM17.7071 20.2929C17.8946 20.4804 18 20.7348 18 21H20C20 20.2044 19.6839 19.4413 19.1213 18.8787L17.7071 20.2929ZM17 20C17.2652 20 17.5196 20.1054 17.7071 20.2929L19.1213 18.8787C18.5587 18.3161 17.7957 18 17 18V20ZM15 20H17V18H15V20ZM14.2929 20.2929C14.4804 20.1054 14.7348 20 15 20V18C14.2044 18 13.4413 18.3161 12.8787 18.8787L14.2929 20.2929ZM14 21C14 20.7348 14.1054 20.4804 14.2929 20.2929L12.8787 18.8787C12.3161 19.4413 12 20.2044 12 21H14ZM14 25V21H12V25H14ZM9 26H13V24H9V26ZM8 14.8284V25H10V14.8284H8ZM10 14C9.77068 14 9.5455 13.9606 9.33335 13.8856L8.66665 15.7712C9.09091 15.9212 9.54144 16 10 16V14Z" fill="#0F1721"/>
</g>
<defs>
<clipPath id="clip0_6124_29805">
<rect width="24" height="24" fill="white" transform="translate(4 4)"/>
</clipPath>
</defs>
</svg>
