<svg width="65" height="64" viewBox="0 0 65 64" fill="none" xmlns="http://www.w3.org/2000/svg">
<rect x="0.333252" width="64" height="64" rx="16" fill="#524CBD"/>
<g clip-path="url(#clip0_5590_116719)">
<path d="M32.3332 34.6667C33.8059 34.6667 34.9998 33.4728 34.9998 32C34.9998 30.5273 33.8059 29.3334 32.3332 29.3334C30.8604 29.3334 29.6665 30.5273 29.6665 32C29.6665 33.4728 30.8604 34.6667 32.3332 34.6667Z" stroke="white" stroke-width="2.66667" stroke-linecap="round" stroke-linejoin="round"/>
<path d="M45.6667 32C42.1107 38.2226 37.6667 41.3333 32.3333 41.3333C27 41.3333 22.556 38.2226 19 32C22.556 25.7773 27 22.6666 32.3333 22.6666C37.6667 22.6666 42.1107 25.7773 45.6667 32Z" stroke="white" stroke-width="2.66667" stroke-linecap="round" stroke-linejoin="round"/>
</g>
<defs>
<clipPath id="clip0_5590_116719">
<rect width="32" height="32" fill="white" transform="translate(16.3333 16)"/>
</clipPath>
</defs>
</svg>
