<svg width="40" height="40" viewBox="0 0 40 40" fill="none" xmlns="http://www.w3.org/2000/svg">
<path d="M17.7462 13.64C16.4662 11.6 14.5062 10.28 11.9462 9.75998C11.2262 9.59998 10.1462 9.47998 9.54623 9.47998C8.94623 9.47998 7.82623 9.59998 7.14623 9.75998C4.58623 10.32 2.62623 11.6 1.34623 13.64C0.186228 15.48 -0.213768 17.52 0.106232 19.88C0.306232 21.4 1.46623 23.68 3.54623 26.6C3.78623 26.88 3.98623 27.16 4.22623 27.48C5.94623 29.72 7.42623 31.64 9.54623 31.64C11.6262 31.64 13.1862 29.64 14.9462 27.36C15.1462 27.12 15.3462 26.88 15.5462 26.6C17.6262 23.68 18.7862 21.4 18.9862 19.88C19.3062 17.52 18.9062 15.48 17.7462 13.64ZM9.54623 22.12C7.58623 22.12 5.98623 20.52 5.98623 18.56C5.98623 16.6 7.58623 15 9.54623 15C11.5062 15 13.1062 16.6 13.1062 18.56C13.1062 20.52 11.5062 22.12 9.54623 22.12Z" fill="#B1E7FF"/>
<path d="M22.0666 26.3999C23.3466 28.4399 25.3066 29.7599 27.8666 30.2799C28.5866 30.4399 29.6666 30.5599 30.2666 30.5599C30.8666 30.5599 31.9866 30.4399 32.6666 30.2799C35.2266 29.7199 37.1866 28.4399 38.4666 26.3999C39.6266 24.5599 40.0266 22.5199 39.7066 20.1599C39.5066 18.6399 38.3466 16.3599 36.2666 13.4399C36.0266 13.1599 35.8266 12.8799 35.5866 12.5599C33.8666 10.3199 32.3866 8.3999 30.2666 8.3999C28.1866 8.3999 26.6266 10.3999 24.8666 12.6799C24.6666 12.9199 24.4666 13.1599 24.2666 13.4399C22.1866 16.3599 21.0266 18.6399 20.8266 20.1599C20.5066 22.5199 20.9066 24.5599 22.0666 26.3999ZM30.2666 17.9199C32.2266 17.9199 33.8266 19.5199 33.8266 21.4799C33.8266 23.4399 32.2266 25.0399 30.2666 25.0399C28.3066 25.0399 26.7066 23.4399 26.7066 21.4799C26.7066 19.4799 28.3066 17.9199 30.2666 17.9199Z" fill="#B1E7FF"/>
</svg>
