<svg width="32" height="32" viewBox="0 0 32 32" fill="none" xmlns="http://www.w3.org/2000/svg">
<path d="M14.197 10.912C13.173 9.27998 11.605 8.22398 9.55698 7.80798C8.98098 7.67998 8.11698 7.58398 7.63698 7.58398C7.15698 7.58398 6.26098 7.67998 5.71698 7.80798C3.66898 8.25598 2.10098 9.27998 1.07698 10.912C0.148983 12.384 -0.171014 14.016 0.0849857 15.904C0.244986 17.12 1.17298 18.944 2.83698 21.28C3.02898 21.504 3.18898 21.728 3.38098 21.984C4.75698 23.776 5.94098 25.312 7.63698 25.312C9.30098 25.312 10.549 23.712 11.957 21.888C12.117 21.696 12.277 21.504 12.437 21.28C14.101 18.944 15.029 17.12 15.189 15.904C15.445 14.016 15.125 12.384 14.197 10.912ZM7.63698 17.696C6.06898 17.696 4.78898 16.416 4.78898 14.848C4.78898 13.28 6.06898 12 7.63698 12C9.20498 12 10.485 13.28 10.485 14.848C10.485 16.416 9.20498 17.696 7.63698 17.696Z" fill="#B1E7FF"/>
<path d="M17.6532 21.12C18.6772 22.752 20.2452 23.808 22.2932 24.224C22.8692 24.352 23.7332 24.448 24.2132 24.448C24.6932 24.448 25.5892 24.352 26.1332 24.224C28.1812 23.776 29.7492 22.752 30.7732 21.12C31.7012 19.648 32.0212 18.016 31.7652 16.128C31.6052 14.912 30.6772 13.088 29.0132 10.752C28.8212 10.528 28.6612 10.304 28.4692 10.048C27.0932 8.25597 25.9092 6.71997 24.2132 6.71997C22.5492 6.71997 21.3012 8.31997 19.8932 10.144C19.7332 10.336 19.5732 10.528 19.4132 10.752C17.7492 13.088 16.8212 14.912 16.6612 16.128C16.4052 18.016 16.7252 19.648 17.6532 21.12ZM24.2132 14.336C25.7812 14.336 27.0612 15.616 27.0612 17.184C27.0612 18.752 25.7812 20.032 24.2132 20.032C22.6452 20.032 21.3652 18.752 21.3652 17.184C21.3652 15.584 22.6452 14.336 24.2132 14.336Z" fill="#B1E7FF"/>
</svg>
