<svg width="40" height="40" viewBox="0 0 40 40" fill="none" xmlns="http://www.w3.org/2000/svg">
<path d="M17.7462 13.64C16.4662 11.6 14.5062 10.28 11.9462 9.75998C11.2262 9.59998 10.1462 9.47998 9.54623 9.47998C8.94623 9.47998 7.82623 9.59998 7.14623 9.75998C4.58623 10.32 2.62623 11.6 1.34623 13.64C0.186228 15.48 -0.213768 17.52 0.106232 19.88C0.306232 21.4 1.46623 23.68 3.54623 26.6C3.78623 26.88 3.98623 27.16 4.22623 27.48C5.94623 29.72 7.42623 31.64 9.54623 31.64C11.6262 31.64 13.1862 29.64 14.9462 27.36C15.1462 27.12 15.3462 26.88 15.5462 26.6C17.6262 23.68 18.7862 21.4 18.9862 19.88C19.3062 17.52 18.9062 15.48 17.7462 13.64ZM9.54623 22.12C7.58623 22.12 5.98623 20.52 5.98623 18.56C5.98623 16.6 7.58623 15 9.54623 15C11.5062 15 13.1062 16.6 13.1062 18.56C13.1062 20.52 11.5062 22.12 9.54623 22.12Z" fill="#524CBD"/>
<path d="M22.0664 26.3999C23.3464 28.4399 25.3064 29.7599 27.8664 30.2799C28.5864 30.4399 29.6664 30.5599 30.2664 30.5599C30.8664 30.5599 31.9864 30.4399 32.6664 30.2799C35.2264 29.7199 37.1864 28.4399 38.4664 26.3999C39.6264 24.5599 40.0265 22.5199 39.7065 20.1599C39.5065 18.6399 38.3464 16.3599 36.2664 13.4399C36.0264 13.1599 35.8265 12.8799 35.5865 12.5599C33.8665 10.3199 32.3864 8.3999 30.2664 8.3999C28.1864 8.3999 26.6264 10.3999 24.8664 12.6799C24.6664 12.9199 24.4664 13.1599 24.2664 13.4399C22.1864 16.3599 21.0264 18.6399 20.8264 20.1599C20.5064 22.5199 20.9064 24.5599 22.0664 26.3999ZM30.2664 17.9199C32.2264 17.9199 33.8264 19.5199 33.8264 21.4799C33.8264 23.4399 32.2264 25.0399 30.2664 25.0399C28.3064 25.0399 26.7065 23.4399 26.7065 21.4799C26.7065 19.4799 28.3064 17.9199 30.2664 17.9199Z" fill="#524CBD"/>
</svg>
