<svg width="68" height="32" viewBox="0 0 68 32" fill="none" xmlns="http://www.w3.org/2000/svg">
<path d="M13.4235 15.7844C13.2909 15.4199 13.2909 15.0886 13.4235 14.7572C14.1525 12.9677 15.6437 9.19005 16.2071 7.69885C16.3065 7.50003 16.1408 7.26807 15.9088 7.26807C14.5502 7.26807 12.1311 7.26807 11.1039 7.26807C10.5737 7.26807 10.0766 7.59944 9.87776 8.09651C9.54639 8.85867 8.35343 12.3713 8.02206 13.1666C7.92264 13.4317 7.75695 13.7299 7.0942 13.6968C6.69655 13.6636 6.36517 13.3654 6.36517 12.9677V8.09651C6.36517 7.63258 6.00066 7.26807 5.53673 7.26807H0.69863C0.532942 7.26807 0.400391 7.40062 0.400391 7.56631V24.4665C0.400391 24.6322 0.499805 24.7316 0.665493 24.7316H5.53673C6.00066 24.7316 6.36517 24.334 6.36517 23.9032C6.36517 22.2463 6.2989 20.8214 6.36517 19.1645C6.36517 18.7668 6.36517 17.9715 7.16047 17.839C7.69068 17.7396 8.05519 18.0378 8.18774 18.4686C8.65167 19.9267 9.51325 22.5777 9.97718 24.0026C10.1097 24.4334 10.5405 24.7316 11.0044 24.7316C12.098 24.7316 14.8153 24.7316 16.2071 24.7316C16.4059 24.7316 16.5716 24.5659 16.4722 24.3671C16.5384 24.3671 14.0862 17.4745 13.4235 15.7844Z" fill="#524CBD"/>
<path d="M64.5221 15.7844C64.3896 15.4199 64.3896 15.0886 64.5221 14.7572C65.2512 12.9677 66.7424 9.19005 67.3057 7.69885C67.4051 7.50003 67.2394 7.26807 67.0075 7.26807C65.6488 7.26807 63.2298 7.26807 62.2025 7.26807C61.6723 7.26807 61.1752 7.59944 60.9764 8.09651C60.645 8.85867 59.4521 12.3713 59.1207 13.1666C59.0213 13.4317 58.8556 13.7299 58.1928 13.6968C57.7952 13.6636 57.4638 13.3654 57.4638 12.9677V8.09651C57.4638 7.63258 57.0993 7.26807 56.6354 7.26807H51.7973C51.6316 7.26807 51.499 7.40062 51.499 7.56631V24.4665C51.499 24.6322 51.5984 24.7316 51.7641 24.7316H56.6354C57.0993 24.7316 57.4638 24.334 57.4638 23.9032C57.4638 22.2463 57.3975 20.8214 57.4638 19.1645C57.4638 18.7668 57.4638 17.9715 58.2591 17.839C58.7893 17.7396 59.1538 18.0378 59.2864 18.4686C59.7503 19.9267 60.6119 22.5777 61.0758 24.0026C61.2084 24.4334 61.6391 24.7316 62.1031 24.7316C63.1966 24.7316 65.9139 24.7316 67.3057 24.7316C67.5045 24.7316 67.6702 24.5659 67.5708 24.3671C67.6039 24.3671 65.1849 17.4745 64.5221 15.7844Z" fill="#524CBD"/>
<path d="M31.2525 10.7144C30.1921 9.02436 28.5683 7.93082 26.4475 7.50003C25.8511 7.36748 24.9563 7.26807 24.4593 7.26807C23.9622 7.26807 23.0344 7.36748 22.471 7.50003C20.3502 7.96396 18.7265 9.02436 17.6661 10.7144C16.7051 12.2387 16.3737 13.9287 16.6388 15.8839C16.8045 17.1431 17.7655 19.0319 19.4886 21.451C19.6875 21.6829 19.8531 21.9149 20.052 22.18C21.4769 24.0357 22.703 25.6263 24.4593 25.6263C26.1824 25.6263 27.4748 23.9695 28.9329 22.0806C29.0985 21.8818 29.2642 21.6829 29.4299 21.451C31.1531 19.0319 32.1141 17.1431 32.2798 15.8839C32.5449 13.9287 32.2135 12.2387 31.2525 10.7144ZM24.4593 17.7396C22.8355 17.7396 21.51 16.4141 21.51 14.7903C21.51 13.1666 22.8355 11.8411 24.4593 11.8411C26.083 11.8411 27.4085 13.1666 27.4085 14.7903C27.4085 16.4141 26.083 17.7396 24.4593 17.7396Z" fill="#524CBD"/>
<path d="M34.8301 21.2855C35.8905 22.9755 37.5143 24.069 39.6351 24.4998C40.2316 24.6324 41.1263 24.7318 41.6233 24.7318C42.1204 24.7318 43.0483 24.6324 43.6116 24.4998C45.7324 24.0359 47.3562 22.9755 48.4166 21.2855C49.3776 19.7612 49.7089 18.0711 49.4438 16.116C49.2781 14.8568 48.3172 12.9679 46.594 10.5489C46.3952 10.3169 46.2295 10.085 46.0307 9.81985C44.6057 7.96414 43.3796 6.37354 41.6233 6.37354C39.9002 6.37354 38.6078 8.03042 37.1498 9.91927C36.9841 10.1181 36.8184 10.3169 36.6527 10.5489C34.9295 12.9679 33.9685 14.8568 33.8029 16.116C33.5377 18.0711 33.8691 19.7612 34.8301 21.2855ZM41.6233 14.2603C43.2471 14.2603 44.5726 15.5858 44.5726 17.2096C44.5726 18.8333 43.2471 20.1588 41.6233 20.1588C39.9996 20.1588 38.6741 18.8333 38.6741 17.2096C38.6741 15.5527 39.9996 14.2603 41.6233 14.2603Z" fill="#524CBD"/>
</svg>
