<svg width="135" height="64" viewBox="0 0 135 64" fill="none" xmlns="http://www.w3.org/2000/svg">
<path d="M26.0462 31.5691C25.7811 30.8401 25.7811 30.1774 26.0462 29.5146C27.5043 25.9357 30.4867 18.3803 31.6133 15.398C31.8122 15.0003 31.4808 14.5364 31.0169 14.5364C28.2996 14.5364 23.4615 14.5364 21.4069 14.5364C20.3465 14.5364 19.3524 15.1991 18.9547 16.1933C18.292 17.7176 15.9061 24.7428 15.2433 26.3334C15.0445 26.8636 14.7131 27.4601 13.3876 27.3938C12.5923 27.3275 11.9296 26.731 11.9296 25.9357V16.1933C11.9296 15.2654 11.2005 14.5364 10.2727 14.5364H0.596479C0.265102 14.5364 0 14.8015 0 15.1329V48.9333C0 49.2647 0.198828 49.4635 0.530205 49.4635H10.2727C11.2005 49.4635 11.9296 48.6682 11.9296 47.8066C11.9296 44.4928 11.797 41.643 11.9296 38.3292C11.9296 37.5339 11.9296 35.9433 13.5202 35.6782C14.5806 35.4794 15.3096 36.0759 15.5747 36.9374C16.5026 39.8536 18.2257 45.1556 19.1536 48.0054C19.4187 48.867 20.2803 49.4635 21.2081 49.4635C23.3952 49.4635 28.8298 49.4635 31.6133 49.4635C32.011 49.4635 32.3424 49.1321 32.1435 48.7344C32.2761 48.7344 27.3717 34.9492 26.0462 31.5691Z" fill="#524CBD"/>
<path d="M128.243 31.5691C127.978 30.8401 127.978 30.1774 128.243 29.5146C129.701 25.9357 132.683 18.3803 133.81 15.398C134.009 15.0003 133.678 14.5364 133.214 14.5364C130.496 14.5364 125.658 14.5364 123.604 14.5364C122.543 14.5364 121.549 15.1991 121.152 16.1933C120.489 17.7176 118.103 24.7428 117.44 26.3334C117.241 26.8636 116.91 27.4601 115.584 27.3938C114.789 27.3275 114.126 26.731 114.126 25.9357V16.1933C114.126 15.2654 113.397 14.5364 112.469 14.5364H102.793C102.462 14.5364 102.197 14.8015 102.197 15.1329V48.9333C102.197 49.2647 102.396 49.4635 102.727 49.4635H112.469C113.397 49.4635 114.126 48.6682 114.126 47.8066C114.126 44.4928 113.994 41.643 114.126 38.3292C114.126 37.5339 114.126 35.9433 115.717 35.6782C116.777 35.4794 117.506 36.0759 117.771 36.9374C118.699 39.8536 120.423 45.1556 121.35 48.0054C121.615 48.867 122.477 49.4635 123.405 49.4635C125.592 49.4635 131.027 49.4635 133.81 49.4635C134.208 49.4635 134.539 49.1321 134.34 48.7344C134.407 48.7344 129.569 34.9492 128.243 31.5691Z" fill="#524CBD"/>
<path d="M61.7027 21.429C59.5819 18.049 56.3344 15.8619 52.0928 15.0003C50.8999 14.7352 49.1104 14.5364 48.1163 14.5364C47.1222 14.5364 45.2665 14.7352 44.1398 15.0003C39.8982 15.9282 36.6507 18.049 34.5299 21.429C32.6079 24.4777 31.9451 27.8577 32.4753 31.768C32.8067 34.2864 34.7287 38.0641 38.175 42.9022C38.5727 43.3661 38.904 43.8301 39.3017 44.3603C42.1515 48.0717 44.6037 51.2529 48.1163 51.2529C51.5626 51.2529 54.1474 47.9391 57.0635 44.1615C57.3948 43.7638 57.7262 43.3661 58.0576 42.9022C61.5039 38.0641 63.4259 34.2864 63.7573 31.768C64.2875 27.8577 63.6247 24.4777 61.7027 21.429ZM48.1163 35.4794C44.8688 35.4794 42.2178 32.8284 42.2178 29.5809C42.2178 26.3334 44.8688 23.6824 48.1163 23.6824C51.3638 23.6824 54.0148 26.3334 54.0148 29.5809C54.0148 32.8284 51.3638 35.4794 48.1163 35.4794Z" fill="#524CBD"/>
<path d="M68.8602 42.5712C70.981 45.9513 74.2285 48.1383 78.4701 48.9999C79.6631 49.265 81.4525 49.4639 82.4466 49.4639C83.4408 49.4639 85.2965 49.265 86.4232 48.9999C90.6648 48.0721 93.9123 45.9513 96.0331 42.5712C97.9551 39.5225 98.6178 36.1425 98.0876 32.2323C97.7562 29.7138 95.8342 25.9361 92.3879 21.098C91.9903 20.6341 91.6589 20.1702 91.2613 19.6399C88.4114 15.9285 85.9592 12.7473 82.4466 12.7473C79.0003 12.7473 76.4156 16.0611 73.4995 19.8388C73.1681 20.2364 72.8367 20.6341 72.5053 21.098C69.059 25.9361 67.137 29.7138 66.8057 32.2323C66.2754 36.1425 66.9382 39.5225 68.8602 42.5712ZM82.4466 28.5208C85.6941 28.5208 88.3451 31.1719 88.3451 34.4193C88.3451 37.6668 85.6941 40.3179 82.4466 40.3179C79.1991 40.3179 76.5481 37.6668 76.5481 34.4193C76.5481 31.1056 79.1991 28.5208 82.4466 28.5208Z" fill="#524CBD"/>
</svg>
