<svg width="290" height="24" viewBox="0 0 290 24" fill="none" xmlns="http://www.w3.org/2000/svg">
<rect width="70" height="24" rx="8" fill="#E64646"/>
<path d="M16.5398 11.6364C16.5398 12.5682 16.3693 13.3693 16.0284 14.0398C15.6875 14.7074 15.2202 15.2216 14.6264 15.5824C14.0355 15.9403 13.3636 16.1193 12.6108 16.1193C11.8551 16.1193 11.1804 15.9403 10.5866 15.5824C9.99574 15.2216 9.52983 14.706 9.18892 14.0355C8.84801 13.3651 8.67756 12.5653 8.67756 11.6364C8.67756 10.7045 8.84801 9.90483 9.18892 9.23722C9.52983 8.56676 9.99574 8.05256 10.5866 7.6946C11.1804 7.33381 11.8551 7.15341 12.6108 7.15341C13.3636 7.15341 14.0355 7.33381 14.6264 7.6946C15.2202 8.05256 15.6875 8.56676 16.0284 9.23722C16.3693 9.90483 16.5398 10.7045 16.5398 11.6364ZM15.2358 11.6364C15.2358 10.9261 15.1207 10.3281 14.8906 9.84233C14.6634 9.35369 14.3509 8.98438 13.9531 8.73438C13.5582 8.48153 13.1108 8.35511 12.6108 8.35511C12.108 8.35511 11.6591 8.48153 11.2642 8.73438C10.8693 8.98438 10.5568 9.35369 10.3267 9.84233C10.0994 10.3281 9.9858 10.9261 9.9858 11.6364C9.9858 12.3466 10.0994 12.946 10.3267 13.4347C10.5568 13.9205 10.8693 14.2898 11.2642 14.5426C11.6591 14.7926 12.108 14.9176 12.6108 14.9176C13.1108 14.9176 13.5582 14.7926 13.9531 14.5426C14.3509 14.2898 14.6634 13.9205 14.8906 13.4347C15.1207 12.946 15.2358 12.3466 15.2358 11.6364ZM17.5616 16L20.0971 12.6506L17.5914 9.45455H19.0744L21.0985 12.1733H21.5545V9.45455H22.8286V12.1733H23.2718L25.296 9.45455H26.7789L24.286 12.6506L26.8087 16H25.296L23.2548 13.2727H22.8286V16H21.5545V13.2727H21.1283L19.0744 16H17.5616ZM29.2528 14.2145L32.1377 9.45455H33.5099V16H32.2613V11.2358L29.3891 16H28.0042V9.45455H29.2528V14.2145ZM34.4837 17.8878V14.8963H35.0164C35.1528 14.7713 35.2678 14.6222 35.3616 14.4489C35.4582 14.2756 35.5391 14.0696 35.6045 13.831C35.6727 13.5923 35.7295 13.3139 35.7749 12.9957C35.8204 12.6747 35.8602 12.3082 35.8942 11.8963L36.0988 9.45455H40.5477V14.8963H41.5533V17.8878H40.309V16H35.7451V17.8878H34.4837ZM36.38 14.8963H39.3033V10.5455H37.2408L37.1045 11.8963C37.0391 12.5838 36.9567 13.1804 36.8573 13.6861C36.7579 14.1889 36.5988 14.5923 36.38 14.8963ZM44.6035 16.1449C44.1888 16.1449 43.8138 16.0682 43.4785 15.9148C43.1433 15.7585 42.8777 15.5327 42.6817 15.2372C42.4885 14.9418 42.3919 14.5795 42.3919 14.1506C42.3919 13.7812 42.4629 13.4773 42.605 13.2386C42.747 13 42.9388 12.8111 43.1803 12.6719C43.4217 12.5327 43.6916 12.4276 43.9899 12.3565C44.2882 12.2855 44.5922 12.2315 44.9018 12.1946C45.2939 12.1491 45.6121 12.1122 45.8564 12.0838C46.1007 12.0526 46.2783 12.0028 46.3891 11.9347C46.4999 11.8665 46.5553 11.7557 46.5553 11.6023V11.5724C46.5553 11.2003 46.4501 10.9119 46.2399 10.7074C46.0325 10.5028 45.7229 10.4006 45.3109 10.4006C44.882 10.4006 44.5439 10.4957 44.2967 10.6861C44.0524 10.8736 43.8834 11.0824 43.7896 11.3125L42.5922 11.0398C42.7342 10.642 42.9416 10.321 43.2143 10.0767C43.4899 9.82955 43.8067 9.65057 44.1646 9.53977C44.5226 9.42614 44.899 9.36932 45.2939 9.36932C45.5553 9.36932 45.8322 9.40057 46.1249 9.46307C46.4203 9.52273 46.6959 9.63352 46.9516 9.79545C47.2101 9.95739 47.4217 10.1889 47.5865 10.4901C47.7513 10.7884 47.8337 11.1761 47.8337 11.6534V16H46.5893V15.1051H46.5382C46.4558 15.2699 46.3322 15.4318 46.1675 15.5909C46.0027 15.75 45.791 15.8821 45.5325 15.9872C45.274 16.0923 44.9643 16.1449 44.6035 16.1449ZM44.8805 15.1222C45.2328 15.1222 45.5339 15.0526 45.7839 14.9134C46.0368 14.7741 46.2285 14.5923 46.3592 14.3679C46.4928 14.1406 46.5595 13.8977 46.5595 13.6392V12.7955C46.5141 12.8409 46.426 12.8835 46.2953 12.9233C46.1675 12.9602 46.0212 12.9929 45.8564 13.0213C45.6916 13.0469 45.5311 13.071 45.3749 13.0938C45.2186 13.1136 45.0879 13.1307 44.9828 13.1449C44.7357 13.1761 44.5098 13.2287 44.3053 13.3026C44.1035 13.3764 43.9416 13.483 43.8195 13.6222C43.7001 13.7585 43.6405 13.9403 43.6405 14.1676C43.6405 14.483 43.757 14.7216 43.9899 14.8835C44.2229 15.0426 44.5197 15.1222 44.8805 15.1222ZM52.2518 16.1321C51.6069 16.1321 51.0515 15.9943 50.5856 15.7188C50.1225 15.4403 49.7646 15.0497 49.5117 14.5469C49.2617 14.0412 49.1367 13.4489 49.1367 12.7699C49.1367 12.0994 49.2617 11.5085 49.5117 10.9972C49.7646 10.4858 50.1168 10.0866 50.5685 9.79972C51.0231 9.51278 51.5543 9.36932 52.1623 9.36932C52.5316 9.36932 52.8896 9.4304 53.2362 9.55256C53.5827 9.67472 53.8938 9.86648 54.1694 10.1278C54.445 10.3892 54.6623 10.7287 54.8214 11.1463C54.9805 11.5611 55.06 12.0653 55.06 12.6591V13.1108H49.8569V12.1562H53.8114C53.8114 11.821 53.7433 11.5241 53.6069 11.2656C53.4705 11.0043 53.2788 10.7983 53.0316 10.6477C52.7873 10.4972 52.5004 10.4219 52.1708 10.4219C51.8129 10.4219 51.5004 10.5099 51.2333 10.6861C50.9691 10.8594 50.7646 11.0866 50.6197 11.3679C50.4776 11.6463 50.4066 11.9489 50.4066 12.2756V13.0213C50.4066 13.4588 50.4833 13.831 50.6367 14.1378C50.793 14.4446 51.0103 14.679 51.2887 14.8409C51.5671 15 51.8924 15.0795 52.2646 15.0795C52.506 15.0795 52.7262 15.0455 52.9251 14.9773C53.1239 14.9062 53.2958 14.8011 53.4407 14.6619C53.5856 14.5227 53.6964 14.3509 53.7731 14.1463L54.979 14.3636C54.8825 14.7187 54.7092 15.0298 54.4592 15.2969C54.212 15.5611 53.9009 15.767 53.5259 15.9148C53.1538 16.0597 52.729 16.1321 52.2518 16.1321ZM55.7963 10.554V9.45455H61.319V10.554H59.1841V16H57.9398V10.554H55.7963Z" fill="white"/>
<rect x="74" width="59" height="24" rx="8" fill="#3F84E5"/>
<path d="M89.7812 7.27273V16H88.4688V8.39773H84.3608V16H83.0483V7.27273H89.7812ZM91.5925 18.4545V9.45455H92.8368V10.5156H92.9433C93.0172 10.3793 93.1237 10.2216 93.2629 10.0426C93.4021 9.86364 93.5953 9.70739 93.8425 9.57386C94.0896 9.4375 94.4163 9.36932 94.8226 9.36932C95.351 9.36932 95.8226 9.50284 96.2374 9.76989C96.6521 10.0369 96.9774 10.4219 97.2132 10.9247C97.4518 11.4276 97.5712 12.0327 97.5712 12.7401C97.5712 13.4474 97.4533 14.054 97.2175 14.5597C96.9817 15.0625 96.6578 15.4503 96.2459 15.723C95.8339 15.9929 95.3638 16.1278 94.8354 16.1278C94.4376 16.1278 94.1124 16.0611 93.8595 15.9276C93.6095 15.794 93.4135 15.6378 93.2714 15.4588C93.1294 15.2798 93.02 15.1207 92.9433 14.9815H92.8666V18.4545H91.5925ZM92.8411 12.7273C92.8411 13.1875 92.9078 13.5909 93.0413 13.9375C93.1749 14.2841 93.368 14.5554 93.6209 14.7514C93.8737 14.9446 94.1834 15.0412 94.5499 15.0412C94.9305 15.0412 95.2487 14.9403 95.5044 14.7386C95.7601 14.5341 95.9533 14.2571 96.0839 13.9077C96.2175 13.5582 96.2842 13.1648 96.2842 12.7273C96.2842 12.2955 96.2189 11.9077 96.0882 11.5639C95.9604 11.2202 95.7672 10.9489 95.5087 10.75C95.253 10.5511 94.9334 10.4517 94.5499 10.4517C94.1805 10.4517 93.868 10.5469 93.6124 10.7372C93.3595 10.9276 93.1678 11.1932 93.0371 11.5341C92.9064 11.875 92.8411 12.2727 92.8411 12.7273ZM100.147 14.2145L103.032 9.45455H104.404V16H103.156V11.2358L100.284 16H98.8987V9.45455H100.147V14.2145ZM110.454 12.1776V13.2812H106.908V12.1776H110.454ZM107.266 9.45455V16H106.017V9.45455H107.266ZM111.344 9.45455V16H110.1V9.45455H111.344ZM116.852 16V10.5412H115.284C114.912 10.5412 114.622 10.6278 114.415 10.8011C114.207 10.9744 114.104 11.2017 114.104 11.483C114.104 11.7614 114.199 11.9858 114.389 12.1562C114.582 12.3239 114.852 12.4077 115.199 12.4077H117.223V13.4389H115.199C114.716 13.4389 114.298 13.3594 113.946 13.2003C113.596 13.0384 113.327 12.8097 113.136 12.5142C112.949 12.2187 112.855 11.8693 112.855 11.4659C112.855 11.054 112.952 10.6989 113.145 10.4006C113.341 10.0994 113.621 9.86648 113.984 9.7017C114.351 9.53693 114.784 9.45455 115.284 9.45455H118.05V16H116.852ZM112.557 16L114.402 12.6932H115.706L113.861 16H112.557ZM118.834 10.554V9.45455H124.357V10.554H122.222V16H120.977V10.554H118.834Z" fill="white"/>
<rect x="137" width="80" height="24" rx="8" fill="#4BB44B"/>
<path d="M145.298 18.1094V14.8835H145.874C146.07 14.7187 146.253 14.4844 146.423 14.1804C146.594 13.8764 146.739 13.4659 146.858 12.9489C146.977 12.4318 147.06 11.7685 147.105 10.9588L147.31 7.27273H152.692V14.8835H153.68V18.0966H152.419V16H146.56V18.1094H145.298ZM147.425 14.8835H151.43V8.40625H148.503L148.366 10.9588C148.33 11.5753 148.268 12.1293 148.183 12.6207C148.101 13.1122 147.994 13.5469 147.864 13.9247C147.736 14.2997 147.589 14.6193 147.425 14.8835ZM157.678 16.1321C157.064 16.1321 156.529 15.9915 156.071 15.7102C155.614 15.429 155.259 15.0355 155.006 14.5298C154.753 14.0241 154.627 13.4332 154.627 12.7571C154.627 12.0781 154.753 11.4844 155.006 10.9759C155.259 10.4673 155.614 10.0724 156.071 9.79119C156.529 9.50994 157.064 9.36932 157.678 9.36932C158.291 9.36932 158.827 9.50994 159.284 9.79119C159.742 10.0724 160.097 10.4673 160.35 10.9759C160.602 11.4844 160.729 12.0781 160.729 12.7571C160.729 13.4332 160.602 14.0241 160.35 14.5298C160.097 15.0355 159.742 15.429 159.284 15.7102C158.827 15.9915 158.291 16.1321 157.678 16.1321ZM157.682 15.0625C158.08 15.0625 158.409 14.9574 158.671 14.7472C158.932 14.5369 159.125 14.2571 159.25 13.9077C159.378 13.5582 159.442 13.1733 159.442 12.7528C159.442 12.3352 159.378 11.9517 159.25 11.6023C159.125 11.25 158.932 10.9673 158.671 10.7543C158.409 10.5412 158.08 10.4347 157.682 10.4347C157.281 10.4347 156.949 10.5412 156.685 10.7543C156.423 10.9673 156.229 11.25 156.101 11.6023C155.976 11.9517 155.913 12.3352 155.913 12.7528C155.913 13.1733 155.976 13.5582 156.101 13.9077C156.229 14.2571 156.423 14.5369 156.685 14.7472C156.949 14.9574 157.281 15.0625 157.682 15.0625ZM164.808 16.1321C164.175 16.1321 163.629 15.9886 163.172 15.7017C162.717 15.4119 162.368 15.0128 162.124 14.5043C161.879 13.9957 161.757 13.4134 161.757 12.7571C161.757 12.0923 161.882 11.5057 162.132 10.9972C162.382 10.4858 162.734 10.0866 163.189 9.79972C163.643 9.51278 164.179 9.36932 164.795 9.36932C165.293 9.36932 165.736 9.46165 166.125 9.64631C166.514 9.82812 166.828 10.0838 167.067 10.4134C167.308 10.7429 167.452 11.1278 167.497 11.5682H166.257C166.189 11.2614 166.033 10.9972 165.788 10.7756C165.547 10.554 165.223 10.4432 164.817 10.4432C164.462 10.4432 164.15 10.5369 163.883 10.7244C163.619 10.9091 163.413 11.1733 163.266 11.517C163.118 11.858 163.044 12.2614 163.044 12.7273C163.044 13.2045 163.116 13.6165 163.261 13.9631C163.406 14.3097 163.611 14.5781 163.875 14.7685C164.142 14.9588 164.456 15.054 164.817 15.054C165.058 15.054 165.277 15.0099 165.473 14.9219C165.672 14.831 165.838 14.7017 165.972 14.5341C166.108 14.3665 166.203 14.1648 166.257 13.929H167.497C167.452 14.3523 167.314 14.7301 167.084 15.0625C166.854 15.3949 166.545 15.6562 166.159 15.8466C165.775 16.0369 165.325 16.1321 164.808 16.1321ZM168.264 10.554V9.45455H173.787V10.554H171.652V16H170.408V10.554H168.264ZM176.635 16.1449C176.22 16.1449 175.845 16.0682 175.51 15.9148C175.175 15.7585 174.909 15.5327 174.713 15.2372C174.52 14.9418 174.423 14.5795 174.423 14.1506C174.423 13.7812 174.494 13.4773 174.636 13.2386C174.778 13 174.97 12.8111 175.212 12.6719C175.453 12.5327 175.723 12.4276 176.021 12.3565C176.319 12.2855 176.623 12.2315 176.933 12.1946C177.325 12.1491 177.643 12.1122 177.888 12.0838C178.132 12.0526 178.31 12.0028 178.42 11.9347C178.531 11.8665 178.587 11.7557 178.587 11.6023V11.5724C178.587 11.2003 178.481 10.9119 178.271 10.7074C178.064 10.5028 177.754 10.4006 177.342 10.4006C176.913 10.4006 176.575 10.4957 176.328 10.6861C176.084 10.8736 175.915 11.0824 175.821 11.3125L174.623 11.0398C174.765 10.642 174.973 10.321 175.246 10.0767C175.521 9.82955 175.838 9.65057 176.196 9.53977C176.554 9.42614 176.93 9.36932 177.325 9.36932C177.587 9.36932 177.863 9.40057 178.156 9.46307C178.452 9.52273 178.727 9.63352 178.983 9.79545C179.241 9.95739 179.453 10.1889 179.618 10.4901C179.783 10.7884 179.865 11.1761 179.865 11.6534V16H178.621V15.1051H178.569C178.487 15.2699 178.363 15.4318 178.199 15.5909C178.034 15.75 177.822 15.8821 177.564 15.9872C177.305 16.0923 176.996 16.1449 176.635 16.1449ZM176.912 15.1222C177.264 15.1222 177.565 15.0526 177.815 14.9134C178.068 14.7741 178.26 14.5923 178.39 14.3679C178.524 14.1406 178.591 13.8977 178.591 13.6392V12.7955C178.545 12.8409 178.457 12.8835 178.327 12.9233C178.199 12.9602 178.052 12.9929 177.888 13.0213C177.723 13.0469 177.562 13.071 177.406 13.0938C177.25 13.1136 177.119 13.1307 177.014 13.1449C176.767 13.1761 176.541 13.2287 176.337 13.3026C176.135 13.3764 175.973 13.483 175.851 13.6222C175.731 13.7585 175.672 13.9403 175.672 14.1676C175.672 14.483 175.788 14.7216 176.021 14.8835C176.254 15.0426 176.551 15.1222 176.912 15.1222ZM181.462 16V9.45455H184.176C184.915 9.45455 185.5 9.61222 185.932 9.92756C186.364 10.2401 186.58 10.6648 186.58 11.2017C186.58 11.5852 186.458 11.8892 186.213 12.1136C185.969 12.3381 185.645 12.4886 185.242 12.5653C185.534 12.5994 185.803 12.6875 186.047 12.8295C186.292 12.9687 186.488 13.1562 186.635 13.392C186.786 13.6278 186.861 13.9091 186.861 14.2358C186.861 14.5824 186.772 14.8892 186.593 15.1562C186.414 15.4205 186.154 15.6278 185.813 15.7784C185.475 15.9261 185.067 16 184.59 16H181.462ZM182.659 14.9347H184.59C184.905 14.9347 185.152 14.8594 185.331 14.7088C185.51 14.5582 185.6 14.3537 185.6 14.0952C185.6 13.7912 185.51 13.5526 185.331 13.3793C185.152 13.2031 184.905 13.1151 184.59 13.1151H182.659V14.9347ZM182.659 12.1818H184.189C184.428 12.1818 184.632 12.1477 184.803 12.0795C184.976 12.0114 185.108 11.9148 185.199 11.7898C185.293 11.6619 185.34 11.5114 185.34 11.3381C185.34 11.0852 185.236 10.8878 185.029 10.7457C184.821 10.6037 184.537 10.5327 184.176 10.5327H182.659V12.1818ZM187.643 16L187.639 14.8963H187.873C188.055 14.8963 188.207 14.858 188.329 14.7812C188.454 14.7017 188.557 14.5682 188.636 14.3807C188.716 14.1932 188.777 13.9347 188.819 13.6051C188.862 13.2727 188.893 12.8551 188.913 12.3523L189.028 9.45455H193.596V16H192.348V10.554H190.209L190.106 12.7784C190.081 13.3182 190.025 13.7898 189.94 14.1932C189.858 14.5966 189.737 14.9332 189.578 15.2031C189.419 15.4702 189.214 15.6705 188.964 15.804C188.714 15.9347 188.41 16 188.052 16H187.643ZM198.017 16.1321C197.372 16.1321 196.816 15.9943 196.35 15.7188C195.887 15.4403 195.529 15.0497 195.277 14.5469C195.027 14.0412 194.902 13.4489 194.902 12.7699C194.902 12.0994 195.027 11.5085 195.277 10.9972C195.529 10.4858 195.882 10.0866 196.333 9.79972C196.788 9.51278 197.319 9.36932 197.927 9.36932C198.296 9.36932 198.654 9.4304 199.001 9.55256C199.348 9.67472 199.659 9.86648 199.934 10.1278C200.21 10.3892 200.427 10.7287 200.586 11.1463C200.745 11.5611 200.825 12.0653 200.825 12.6591V13.1108H195.622V12.1562H199.576C199.576 11.821 199.508 11.5241 199.372 11.2656C199.235 11.0043 199.044 10.7983 198.796 10.6477C198.552 10.4972 198.265 10.4219 197.936 10.4219C197.578 10.4219 197.265 10.5099 196.998 10.6861C196.734 10.8594 196.529 11.0866 196.385 11.3679C196.242 11.6463 196.171 11.9489 196.171 12.2756V13.0213C196.171 13.4588 196.248 13.831 196.402 14.1378C196.558 14.4446 196.775 14.679 197.054 14.8409C197.332 15 197.657 15.0795 198.029 15.0795C198.271 15.0795 198.491 15.0455 198.69 14.9773C198.889 14.9062 199.061 14.8011 199.206 14.6619C199.35 14.5227 199.461 14.3509 199.538 14.1463L200.744 14.3636C200.647 14.7187 200.474 15.0298 200.224 15.2969C199.977 15.5611 199.666 15.767 199.291 15.9148C198.919 16.0597 198.494 16.1321 198.017 16.1321ZM206.575 12.1776V13.2812H203.029V12.1776H206.575ZM203.387 9.45455V16H202.139V9.45455H203.387ZM207.465 9.45455V16H206.221V9.45455H207.465Z" fill="white"/>
<rect x="221" width="69" height="24" rx="8" fill="#E64646"/>
<path d="M237.54 11.6364C237.54 12.5682 237.369 13.3693 237.028 14.0398C236.688 14.7074 236.22 15.2216 235.626 15.5824C235.036 15.9403 234.364 16.1193 233.611 16.1193C232.855 16.1193 232.18 15.9403 231.587 15.5824C230.996 15.2216 230.53 14.706 230.189 14.0355C229.848 13.3651 229.678 12.5653 229.678 11.6364C229.678 10.7045 229.848 9.90483 230.189 9.23722C230.53 8.56676 230.996 8.05256 231.587 7.6946C232.18 7.33381 232.855 7.15341 233.611 7.15341C234.364 7.15341 235.036 7.33381 235.626 7.6946C236.22 8.05256 236.688 8.56676 237.028 9.23722C237.369 9.90483 237.54 10.7045 237.54 11.6364ZM236.236 11.6364C236.236 10.9261 236.121 10.3281 235.891 9.84233C235.663 9.35369 235.351 8.98438 234.953 8.73438C234.558 8.48153 234.111 8.35511 233.611 8.35511C233.108 8.35511 232.659 8.48153 232.264 8.73438C231.869 8.98438 231.557 9.35369 231.327 9.84233C231.099 10.3281 230.986 10.9261 230.986 11.6364C230.986 12.3466 231.099 12.946 231.327 13.4347C231.557 13.9205 231.869 14.2898 232.264 14.5426C232.659 14.7926 233.108 14.9176 233.611 14.9176C234.111 14.9176 234.558 14.7926 234.953 14.5426C235.351 14.2898 235.663 13.9205 235.891 13.4347C236.121 12.946 236.236 12.3466 236.236 11.6364ZM238.613 10.554V9.45455H244.135V10.554H242V16H240.756V10.554H238.613ZM249.056 14.4233L251.17 9.45455H252.269L249.529 16H248.583L245.899 9.45455H246.985L249.056 14.4233ZM246.632 9.45455V16H245.383V9.45455H246.632ZM251.515 16V9.45455H252.755V16H251.515ZM257.174 16.1321C256.53 16.1321 255.974 15.9943 255.508 15.7188C255.045 15.4403 254.687 15.0497 254.434 14.5469C254.184 14.0412 254.059 13.4489 254.059 12.7699C254.059 12.0994 254.184 11.5085 254.434 10.9972C254.687 10.4858 255.039 10.0866 255.491 9.79972C255.946 9.51278 256.477 9.36932 257.085 9.36932C257.454 9.36932 257.812 9.4304 258.159 9.55256C258.505 9.67472 258.816 9.86648 259.092 10.1278C259.368 10.3892 259.585 10.7287 259.744 11.1463C259.903 11.5611 259.983 12.0653 259.983 12.6591V13.1108H254.78V12.1562H258.734C258.734 11.821 258.666 11.5241 258.53 11.2656C258.393 11.0043 258.201 10.7983 257.954 10.6477C257.71 10.4972 257.423 10.4219 257.093 10.4219C256.736 10.4219 256.423 10.5099 256.156 10.6861C255.892 10.8594 255.687 11.0866 255.542 11.3679C255.4 11.6463 255.329 11.9489 255.329 12.2756V13.0213C255.329 13.4588 255.406 13.831 255.559 14.1378C255.716 14.4446 255.933 14.679 256.211 14.8409C256.49 15 256.815 15.0795 257.187 15.0795C257.429 15.0795 257.649 15.0455 257.848 14.9773C258.047 14.9062 258.218 14.8011 258.363 14.6619C258.508 14.5227 258.619 14.3509 258.696 14.1463L259.902 14.3636C259.805 14.7187 259.632 15.0298 259.382 15.2969C259.135 15.5611 258.824 15.767 258.449 15.9148C258.076 16.0597 257.652 16.1321 257.174 16.1321ZM265.732 12.1776V13.2812H262.187V12.1776H265.732ZM262.545 9.45455V16H261.296V9.45455H262.545ZM266.623 9.45455V16H265.379V9.45455H266.623ZM271.049 16.1321C270.404 16.1321 269.848 15.9943 269.382 15.7188C268.919 15.4403 268.561 15.0497 268.309 14.5469C268.059 14.0412 267.934 13.4489 267.934 12.7699C267.934 12.0994 268.059 11.5085 268.309 10.9972C268.561 10.4858 268.914 10.0866 269.365 9.79972C269.82 9.51278 270.351 9.36932 270.959 9.36932C271.328 9.36932 271.686 9.4304 272.033 9.55256C272.38 9.67472 272.691 9.86648 272.966 10.1278C273.242 10.3892 273.459 10.7287 273.618 11.1463C273.777 11.5611 273.857 12.0653 273.857 12.6591V13.1108H268.654V12.1562H272.608C272.608 11.821 272.54 11.5241 272.404 11.2656C272.267 11.0043 272.076 10.7983 271.828 10.6477C271.584 10.4972 271.297 10.4219 270.968 10.4219C270.61 10.4219 270.297 10.5099 270.03 10.6861C269.766 10.8594 269.561 11.0866 269.417 11.3679C269.275 11.6463 269.203 11.9489 269.203 12.2756V13.0213C269.203 13.4588 269.28 13.831 269.434 14.1378C269.59 14.4446 269.807 14.679 270.086 14.8409C270.364 15 270.689 15.0795 271.061 15.0795C271.303 15.0795 271.523 15.0455 271.722 14.9773C271.921 14.9062 272.093 14.8011 272.238 14.6619C272.382 14.5227 272.493 14.3509 272.57 14.1463L273.776 14.3636C273.679 14.7187 273.506 15.0298 273.256 15.2969C273.009 15.5611 272.698 15.767 272.323 15.9148C271.951 16.0597 271.526 16.1321 271.049 16.1321ZM279.607 12.1776V13.2812H276.061V12.1776H279.607ZM276.419 9.45455V16H275.171V9.45455H276.419ZM280.497 9.45455V16H279.253V9.45455H280.497Z" fill="white"/>
</svg>
