<svg width="264" height="264" viewBox="0 0 264 264" fill="none" xmlns="http://www.w3.org/2000/svg">
<g clip-path="url(#clip0_4929_7885)">
<path d="M10.3691 -0.20752H-0.20752V10.3691H10.3691V-0.20752Z" fill="#073370"/>
<path d="M20.9457 -0.20752H10.3691V10.3691H20.9457V-0.20752Z" fill="#073370"/>
<path d="M31.5223 -0.20752H20.9457V10.3691H31.5223V-0.20752Z" fill="#073370"/>
<path d="M42.0989 -0.20752H31.5223V10.3691H42.0989V-0.20752Z" fill="#073370"/>
<path d="M52.6755 -0.20752H42.0989V10.3691H52.6755V-0.20752Z" fill="#073370"/>
<path d="M63.2521 -0.20752H52.6755V10.3691H63.2521V-0.20752Z" fill="#073370"/>
<path d="M73.8287 -0.20752H63.2521V10.3691H73.8287V-0.20752Z" fill="#073370"/>
<path d="M94.9819 -0.20752H84.4053V10.3691H94.9819V-0.20752Z" fill="#073370"/>
<path d="M105.559 -0.20752H94.9819V10.3691H105.559V-0.20752Z" fill="#073370"/>
<path d="M126.712 -0.20752H116.135V10.3691H126.712V-0.20752Z" fill="#073370"/>
<path d="M137.288 -0.20752H126.712V10.3691H137.288V-0.20752Z" fill="#073370"/>
<path d="M158.442 -0.20752H147.865V10.3691H158.442V-0.20752Z" fill="#073370"/>
<path d="M179.595 -0.20752H169.018V10.3691H179.595V-0.20752Z" fill="#073370"/>
<path d="M200.748 -0.20752H190.171V10.3691H200.748V-0.20752Z" fill="#073370"/>
<path d="M211.325 -0.20752H200.748V10.3691H211.325V-0.20752Z" fill="#073370"/>
<path d="M221.901 -0.20752H211.325V10.3691H221.901V-0.20752Z" fill="#073370"/>
<path d="M232.478 -0.20752H221.901V10.3691H232.478V-0.20752Z" fill="#073370"/>
<path d="M243.054 -0.20752H232.478V10.3691H243.054V-0.20752Z" fill="#073370"/>
<path d="M253.631 -0.20752H243.054V10.3691H253.631V-0.20752Z" fill="#073370"/>
<path d="M264.208 -0.20752H253.631V10.3691H264.208V-0.20752Z" fill="#073370"/>
<path d="M10.3691 10.3691H-0.20752V20.9457H10.3691V10.3691Z" fill="#073370"/>
<path d="M73.8287 10.3691H63.2521L63.2521 20.9457H73.8287V10.3691Z" fill="#073370"/>
<path d="M105.559 10.3691H94.9819V20.9457H105.559V10.3691Z" fill="#073370"/>
<path d="M126.712 10.3691H116.135V20.9457H126.712V10.3691Z" fill="#073370"/>
<path d="M147.865 10.3691H137.288V20.9457H147.865V10.3691Z" fill="#073370"/>
<path d="M169.018 10.3691H158.442L158.442 20.9457H169.018V10.3691Z" fill="#073370"/>
<path d="M200.748 10.3691H190.171V20.9457H200.748V10.3691Z" fill="#073370"/>
<path d="M264.208 10.3691H253.631V20.9457H264.208V10.3691Z" fill="#073370"/>
<path d="M10.3691 20.9457H-0.20752V31.5223H10.3691V20.9457Z" fill="#073370"/>
<path d="M31.5223 20.9457H20.9457V31.5223H31.5223V20.9457Z" fill="#073370"/>
<path d="M42.0989 20.9457H31.5223V31.5223H42.0989V20.9457Z" fill="#073370"/>
<path d="M52.6755 20.9457H42.0989V31.5223H52.6755V20.9457Z" fill="#073370"/>
<path d="M73.8287 20.9457H63.2521V31.5223H73.8287V20.9457Z" fill="#073370"/>
<path d="M94.9819 20.9457H84.4053V31.5223H94.9819V20.9457Z" fill="#073370"/>
<path d="M105.559 20.9457H94.9819V31.5223H105.559V20.9457Z" fill="#073370"/>
<path d="M126.712 20.9457H116.135V31.5223H126.712V20.9457Z" fill="#073370"/>
<path d="M137.288 20.9457H126.712V31.5223H137.288V20.9457Z" fill="#073370"/>
<path d="M147.865 20.9457H137.288V31.5223H147.865V20.9457Z" fill="#073370"/>
<path d="M158.442 20.9457H147.865V31.5223H158.442L158.442 20.9457Z" fill="#073370"/>
<path d="M200.748 20.9457H190.171V31.5223H200.748V20.9457Z" fill="#073370"/>
<path d="M221.901 20.9457H211.325V31.5223H221.901V20.9457Z" fill="#073370"/>
<path d="M232.478 20.9457H221.901V31.5223H232.478V20.9457Z" fill="#073370"/>
<path d="M243.054 20.9457H232.478V31.5223H243.054V20.9457Z" fill="#073370"/>
<path d="M264.208 20.9457H253.631V31.5223H264.208V20.9457Z" fill="#073370"/>
<path d="M10.3691 31.5223H-0.20752V42.0989H10.3691V31.5223Z" fill="#073370"/>
<path d="M31.5223 31.5223H20.9457V42.0989H31.5223V31.5223Z" fill="#073370"/>
<path d="M42.0989 31.5223H31.5223V42.0989H42.0989V31.5223Z" fill="#073370"/>
<path d="M52.6755 31.5223H42.0989V42.0989H52.6755V31.5223Z" fill="#073370"/>
<path d="M73.8287 31.5223H63.2521V42.0989H73.8287V31.5223Z" fill="#073370"/>
<path d="M105.559 31.5223H94.9819V42.0989H105.559V31.5223Z" fill="#073370"/>
<path d="M116.135 31.5223H105.559V42.0989H116.135V31.5223Z" fill="#073370"/>
<path d="M126.712 31.5223H116.135V42.0989H126.712V31.5223Z" fill="#073370"/>
<path d="M147.865 31.5223H137.288V42.0989H147.865V31.5223Z" fill="#073370"/>
<path d="M158.442 31.5223H147.865V42.0989H158.442V31.5223Z" fill="#073370"/>
<path d="M179.595 31.5223H169.018V42.0989H179.595V31.5223Z" fill="#073370"/>
<path d="M200.748 31.5223H190.171V42.0989H200.748V31.5223Z" fill="#073370"/>
<path d="M221.901 31.5223H211.325V42.0989H221.901V31.5223Z" fill="#073370"/>
<path d="M232.478 31.5223H221.901V42.0989H232.478V31.5223Z" fill="#073370"/>
<path d="M243.054 31.5223H232.478V42.0989H243.054V31.5223Z" fill="#073370"/>
<path d="M264.208 31.5223H253.631V42.0989H264.208V31.5223Z" fill="#073370"/>
<path d="M10.3691 42.0989H-0.20752V52.6755H10.3691V42.0989Z" fill="#073370"/>
<path d="M31.5223 42.0989H20.9457V52.6755H31.5223V42.0989Z" fill="#073370"/>
<path d="M42.0989 42.0989H31.5223V52.6755H42.0989V42.0989Z" fill="#073370"/>
<path d="M52.6755 42.0989H42.0989V52.6755H52.6755V42.0989Z" fill="#073370"/>
<path d="M73.8287 42.0989H63.2521V52.6755H73.8287V42.0989Z" fill="#073370"/>
<path d="M94.9819 42.0989H84.4053V52.6755H94.9819V42.0989Z" fill="#073370"/>
<path d="M105.559 42.0989H94.9819V52.6755H105.559V42.0989Z" fill="#073370"/>
<path d="M179.595 42.0989H169.018V52.6755H179.595V42.0989Z" fill="#073370"/>
<path d="M200.748 42.0989H190.171V52.6755H200.748V42.0989Z" fill="#073370"/>
<path d="M221.901 42.0989H211.325V52.6755H221.901V42.0989Z" fill="#073370"/>
<path d="M232.478 42.0989H221.901V52.6755H232.478V42.0989Z" fill="#073370"/>
<path d="M243.054 42.0989H232.478V52.6755H243.054V42.0989Z" fill="#073370"/>
<path d="M264.208 42.0989H253.631V52.6755H264.208V42.0989Z" fill="#073370"/>
<path d="M10.3691 52.6755H-0.20752V63.2521H10.3691V52.6755Z" fill="#073370"/>
<path d="M73.8287 52.6755H63.2521V63.2521H73.8287V52.6755Z" fill="#073370"/>
<path d="M126.712 52.6755H116.135V63.2521H126.712V52.6755Z" fill="#073370"/>
<path d="M137.288 52.6755H126.712V63.2521H137.288V52.6755Z" fill="#073370"/>
<path d="M179.595 52.6755H169.018V63.2521H179.595V52.6755Z" fill="#073370"/>
<path d="M200.748 52.6755H190.171V63.2521H200.748V52.6755Z" fill="#073370"/>
<path d="M264.208 52.6755H253.631V63.2521H264.208V52.6755Z" fill="#073370"/>
<path d="M10.3691 63.2521H-0.20752V73.8287H10.3691V63.2521Z" fill="#073370"/>
<path d="M20.9457 63.2521L10.3691 63.2521V73.8287H20.9457V63.2521Z" fill="#073370"/>
<path d="M31.5223 63.2521H20.9457V73.8287H31.5223V63.2521Z" fill="#073370"/>
<path d="M42.0989 63.2521H31.5223V73.8287H42.0989V63.2521Z" fill="#073370"/>
<path d="M52.6755 63.2521H42.0989V73.8287H52.6755V63.2521Z" fill="#073370"/>
<path d="M63.2521 63.2521L52.6755 63.2521V73.8287H63.2521L63.2521 63.2521Z" fill="#073370"/>
<path d="M73.8287 63.2521H63.2521L63.2521 73.8287H73.8287V63.2521Z" fill="#073370"/>
<path d="M94.9819 63.2521H84.4053V73.8287H94.9819V63.2521Z" fill="#073370"/>
<path d="M116.135 63.2521L105.559 63.2521V73.8287H116.135V63.2521Z" fill="#073370"/>
<path d="M137.288 63.2521H126.712V73.8287H137.288V63.2521Z" fill="#073370"/>
<path d="M158.442 63.2521H147.865V73.8287H158.442V63.2521Z" fill="#073370"/>
<path d="M179.595 63.2521H169.018V73.8287H179.595V63.2521Z" fill="#073370"/>
<path d="M200.748 63.2521H190.171V73.8287H200.748V63.2521Z" fill="#073370"/>
<path d="M211.325 63.2521L200.748 63.2521V73.8287H211.325V63.2521Z" fill="#073370"/>
<path d="M221.901 63.2521H211.325V73.8287H221.901V63.2521Z" fill="#073370"/>
<path d="M232.478 63.2521H221.901V73.8287H232.478V63.2521Z" fill="#073370"/>
<path d="M243.054 63.2521H232.478V73.8287H243.054V63.2521Z" fill="#073370"/>
<path d="M253.631 63.2521L243.054 63.2521V73.8287H253.631V63.2521Z" fill="#073370"/>
<path d="M264.208 63.2521H253.631V73.8287H264.208V63.2521Z" fill="#073370"/>
<path d="M116.135 73.8287H105.559V84.4053H116.135V73.8287Z" fill="#073370"/>
<path d="M126.712 73.8287H116.135V84.4053H126.712V73.8287Z" fill="#073370"/>
<path d="M137.288 73.8287H126.712V84.4053H137.288V73.8287Z" fill="#073370"/>
<path d="M169.018 73.8287H158.442L158.442 84.4053H169.018V73.8287Z" fill="#073370"/>
<path d="M20.9457 84.4053H10.3691V94.9819H20.9457V84.4053Z" fill="#073370"/>
<path d="M52.6755 84.4053H42.0989V94.9819H52.6755V84.4053Z" fill="#073370"/>
<path d="M73.8287 84.4053H63.2521V94.9819H73.8287V84.4053Z" fill="#073370"/>
<path d="M105.559 84.4053H94.9819V94.9819H105.559V84.4053Z" fill="#073370"/>
<path d="M137.288 84.4053H126.712V94.9819H137.288V84.4053Z" fill="#073370"/>
<path d="M158.442 84.4053H147.865V94.9819H158.442L158.442 84.4053Z" fill="#073370"/>
<path d="M179.595 84.4053H169.018V94.9819H179.595V84.4053Z" fill="#073370"/>
<path d="M190.171 84.4053H179.595V94.9819H190.171V84.4053Z" fill="#073370"/>
<path d="M221.901 84.4053H211.325V94.9819H221.901V84.4053Z" fill="#073370"/>
<path d="M243.054 84.4053H232.478V94.9819H243.054V84.4053Z" fill="#073370"/>
<path d="M264.208 84.4053H253.631V94.9819H264.208V84.4053Z" fill="#073370"/>
<path d="M20.9457 94.9819H10.3691V105.559H20.9457V94.9819Z" fill="#073370"/>
<path d="M31.5223 94.9819H20.9457V105.559H31.5223V94.9819Z" fill="#073370"/>
<path d="M42.0989 94.9819H31.5223V105.559H42.0989V94.9819Z" fill="#073370"/>
<path d="M63.2521 94.9819H52.6755V105.559H63.2521L63.2521 94.9819Z" fill="#073370"/>
<path d="M84.4053 94.9819H73.8287V105.559H84.4053V94.9819Z" fill="#073370"/>
<path d="M105.559 94.9819H94.9819V105.559H105.559V94.9819Z" fill="#073370"/>
<path d="M116.135 94.9819H105.559V105.559H116.135V94.9819Z" fill="#073370"/>
<path d="M126.712 94.9819H116.135V105.559H126.712V94.9819Z" fill="#073370"/>
<path d="M137.288 94.9819H126.712V105.559H137.288V94.9819Z" fill="#073370"/>
<path d="M200.748 94.9819H190.171V105.559H200.748V94.9819Z" fill="#073370"/>
<path d="M211.325 94.9819H200.748V105.559H211.325V94.9819Z" fill="#073370"/>
<path d="M221.901 94.9819H211.325V105.559H221.901V94.9819Z" fill="#073370"/>
<path d="M232.478 94.9819H221.901V105.559H232.478V94.9819Z" fill="#073370"/>
<path d="M264.208 94.9819H253.631V105.559H264.208V94.9819Z" fill="#073370"/>
<path d="M31.5223 105.559H20.9457V116.135H31.5223V105.559Z" fill="#073370"/>
<path d="M52.6755 105.559H42.0989V116.135H52.6755V105.559Z" fill="#073370"/>
<path d="M63.2521 105.559H52.6755V116.135H63.2521V105.559Z" fill="#073370"/>
<path d="M73.8287 105.559H63.2521V116.135H73.8287V105.559Z" fill="#073370"/>
<path d="M84.4053 105.559H73.8287V116.135H84.4053V105.559Z" fill="#073370"/>
<path d="M105.559 105.559H94.9819V116.135H105.559V105.559Z" fill="#073370"/>
<path d="M179.595 105.559H169.018V116.135H179.595V105.559Z" fill="#073370"/>
<path d="M200.748 105.559H190.171V116.135H200.748V105.559Z" fill="#073370"/>
<path d="M232.478 105.559H221.901V116.135H232.478V105.559Z" fill="#073370"/>
<path d="M253.631 105.559H243.054V116.135H253.631V105.559Z" fill="#073370"/>
<path d="M10.3691 116.135H-0.20752V126.712H10.3691V116.135Z" fill="#073370"/>
<path d="M31.5223 116.135H20.9457V126.712H31.5223V116.135Z" fill="#073370"/>
<path d="M42.0989 116.135H31.5223V126.712H42.0989V116.135Z" fill="#073370"/>
<path d="M52.6755 116.135H42.0989V126.712H52.6755V116.135Z" fill="#073370"/>
<path d="M63.2521 116.135H52.6755V126.712H63.2521V116.135Z" fill="#073370"/>
<path d="M94.9819 116.135H84.4053V126.712H94.9819V116.135Z" fill="#073370"/>
<path d="M116.135 116.135H105.559V126.712H116.135V116.135Z" fill="#073370"/>
<path d="M126.712 116.135H116.135V126.712H126.712V116.135Z" fill="#073370"/>
<path d="M147.865 116.135H137.288V126.712H147.865V116.135Z" fill="#073370"/>
<path d="M158.442 116.135H147.865V126.712H158.442V116.135Z" fill="#073370"/>
<path d="M179.595 116.135H169.018V126.712H179.595V116.135Z" fill="#073370"/>
<path d="M190.171 116.135H179.595V126.712H190.171V116.135Z" fill="#073370"/>
<path d="M211.325 116.135H200.748V126.712H211.325V116.135Z" fill="#073370"/>
<path d="M232.478 116.135H221.901V126.712H232.478V116.135Z" fill="#073370"/>
<path d="M243.054 116.135H232.478V126.712H243.054V116.135Z" fill="#073370"/>
<path d="M264.208 116.135H253.631V126.712H264.208V116.135Z" fill="#073370"/>
<path d="M10.3691 126.712H-0.20752V137.288H10.3691V126.712Z" fill="#073370"/>
<path d="M63.2521 126.712H52.6755V137.288H63.2521V126.712Z" fill="#073370"/>
<path d="M73.8287 126.712H63.2521V137.288H73.8287V126.712Z" fill="#073370"/>
<path d="M116.135 126.712H105.559V137.288H116.135V126.712Z" fill="#073370"/>
<path d="M137.288 126.712H126.712V137.288H137.288V126.712Z" fill="#073370"/>
<path d="M147.865 126.712H137.288V137.288H147.865V126.712Z" fill="#073370"/>
<path d="M158.442 126.712H147.865V137.288H158.442V126.712Z" fill="#073370"/>
<path d="M169.018 126.712H158.442V137.288H169.018V126.712Z" fill="#073370"/>
<path d="M221.901 126.712H211.325V137.288H221.901V126.712Z" fill="#073370"/>
<path d="M232.478 126.712H221.901V137.288H232.478V126.712Z" fill="#073370"/>
<path d="M243.054 126.712H232.478V137.288H243.054V126.712Z" fill="#073370"/>
<path d="M253.631 126.712H243.054V137.288H253.631V126.712Z" fill="#073370"/>
<path d="M10.3691 137.288H-0.20752V147.865H10.3691V137.288Z" fill="#073370"/>
<path d="M31.5223 137.288H20.9457V147.865H31.5223V137.288Z" fill="#073370"/>
<path d="M42.0989 137.288H31.5223V147.865H42.0989V137.288Z" fill="#073370"/>
<path d="M63.2521 137.288H52.6755V147.865H63.2521V137.288Z" fill="#073370"/>
<path d="M84.4053 137.288H73.8287V147.865H84.4053V137.288Z" fill="#073370"/>
<path d="M116.135 137.288H105.559V147.865H116.135V137.288Z" fill="#073370"/>
<path d="M147.865 137.288H137.288V147.865H147.865V137.288Z" fill="#073370"/>
<path d="M169.018 137.288H158.442L158.442 147.865H169.018V137.288Z" fill="#073370"/>
<path d="M200.748 137.288H190.171V147.865H200.748V137.288Z" fill="#073370"/>
<path d="M232.478 137.288H221.901V147.865H232.478V137.288Z" fill="#073370"/>
<path d="M253.631 137.288H243.054V147.865H253.631V137.288Z" fill="#073370"/>
<path d="M20.9457 147.865H10.3691V158.442H20.9457V147.865Z" fill="#073370"/>
<path d="M31.5223 147.865H20.9457V158.442H31.5223V147.865Z" fill="#073370"/>
<path d="M42.0989 147.865H31.5223V158.442H42.0989V147.865Z" fill="#073370"/>
<path d="M52.6755 147.865H42.0989V158.442H52.6755V147.865Z" fill="#073370"/>
<path d="M73.8287 147.865H63.2521L63.2521 158.442H73.8287V147.865Z" fill="#073370"/>
<path d="M84.4053 147.865H73.8287V158.442H84.4053V147.865Z" fill="#073370"/>
<path d="M94.9819 147.865H84.4053V158.442H94.9819V147.865Z" fill="#073370"/>
<path d="M105.559 147.865H94.9819V158.442H105.559V147.865Z" fill="#073370"/>
<path d="M158.442 147.865H147.865V158.442H158.442L158.442 147.865Z" fill="#073370"/>
<path d="M169.018 147.865H158.442L158.442 158.442H169.018V147.865Z" fill="#073370"/>
<path d="M179.595 147.865H169.018V158.442H179.595V147.865Z" fill="#073370"/>
<path d="M190.171 147.865H179.595V158.442H190.171V147.865Z" fill="#073370"/>
<path d="M243.054 147.865H232.478V158.442H243.054V147.865Z" fill="#073370"/>
<path d="M253.631 147.865H243.054V158.442H253.631V147.865Z" fill="#073370"/>
<path d="M264.208 147.865H253.631V158.442H264.208V147.865Z" fill="#073370"/>
<path d="M20.9457 158.442H10.3691V169.018H20.9457V158.442Z" fill="#073370"/>
<path d="M42.0989 158.442H31.5223V169.018H42.0989V158.442Z" fill="#073370"/>
<path d="M94.9819 158.442H84.4053V169.018H94.9819V158.442Z" fill="#073370"/>
<path d="M105.559 158.442H94.9819V169.018H105.559V158.442Z" fill="#073370"/>
<path d="M126.712 158.442H116.135V169.018H126.712V158.442Z" fill="#073370"/>
<path d="M169.018 158.442H158.442L158.442 169.018H169.018V158.442Z" fill="#073370"/>
<path d="M200.748 158.442L190.171 158.442V169.018H200.748V158.442Z" fill="#073370"/>
<path d="M253.631 158.442H243.054V169.018H253.631V158.442Z" fill="#073370"/>
<path d="M264.208 158.442H253.631V169.018H264.208V158.442Z" fill="#073370"/>
<path d="M10.3691 169.018H-0.20752V179.595H10.3691V169.018Z" fill="#073370"/>
<path d="M20.9457 169.018H10.3691V179.595H20.9457V169.018Z" fill="#073370"/>
<path d="M31.5223 169.018H20.9457V179.595H31.5223V169.018Z" fill="#073370"/>
<path d="M73.8287 169.018H63.2521V179.595H73.8287V169.018Z" fill="#073370"/>
<path d="M84.4053 169.018H73.8287V179.595H84.4053V169.018Z" fill="#073370"/>
<path d="M94.9819 169.018H84.4053V179.595H94.9819V169.018Z" fill="#073370"/>
<path d="M116.135 169.018H105.559V179.595H116.135V169.018Z" fill="#073370"/>
<path d="M147.865 169.018H137.288V179.595H147.865V169.018Z" fill="#073370"/>
<path d="M158.442 169.018H147.865V179.595H158.442L158.442 169.018Z" fill="#073370"/>
<path d="M179.595 169.018H169.018V179.595H179.595V169.018Z" fill="#073370"/>
<path d="M190.171 169.018H179.595V179.595H190.171V169.018Z" fill="#073370"/>
<path d="M200.748 169.018H190.171V179.595H200.748V169.018Z" fill="#073370"/>
<path d="M211.325 169.018H200.748V179.595H211.325V169.018Z" fill="#073370"/>
<path d="M221.901 169.018H211.325V179.595H221.901V169.018Z" fill="#073370"/>
<path d="M243.054 169.018H232.478V179.595H243.054V169.018Z" fill="#073370"/>
<path d="M253.631 169.018H243.054V179.595H253.631V169.018Z" fill="#073370"/>
<path d="M264.208 169.018H253.631V179.595H264.208V169.018Z" fill="#073370"/>
<path d="M105.559 179.595H94.9819V190.171H105.559V179.595Z" fill="#073370"/>
<path d="M126.712 179.595H116.135V190.171H126.712V179.595Z" fill="#073370"/>
<path d="M137.288 179.595H126.712V190.171H137.288V179.595Z" fill="#073370"/>
<path d="M147.865 179.595H137.288V190.171H147.865V179.595Z" fill="#073370"/>
<path d="M158.442 179.595H147.865V190.171H158.442V179.595Z" fill="#073370"/>
<path d="M179.595 179.595H169.018V190.171H179.595V179.595Z" fill="#073370"/>
<path d="M221.901 179.595H211.325V190.171H221.901V179.595Z" fill="#073370"/>
<path d="M232.478 179.595H221.901V190.171H232.478V179.595Z" fill="#073370"/>
<path d="M253.631 179.595H243.054V190.171H253.631V179.595Z" fill="#073370"/>
<path d="M10.3691 190.171H-0.20752V200.748H10.3691V190.171Z" fill="#073370"/>
<path d="M20.9457 190.171H10.3691V200.748H20.9457V190.171Z" fill="#073370"/>
<path d="M31.5223 190.171H20.9457V200.748H31.5223V190.171Z" fill="#073370"/>
<path d="M42.0989 190.171H31.5223V200.748H42.0989V190.171Z" fill="#073370"/>
<path d="M52.6755 190.171H42.0989V200.748H52.6755V190.171Z" fill="#073370"/>
<path d="M63.2521 190.171H52.6755V200.748H63.2521V190.171Z" fill="#073370"/>
<path d="M73.8287 190.171H63.2521V200.748H73.8287V190.171Z" fill="#073370"/>
<path d="M105.559 190.171H94.9819V200.748H105.559V190.171Z" fill="#073370"/>
<path d="M137.288 190.171H126.712V200.748H137.288V190.171Z" fill="#073370"/>
<path d="M147.865 190.171H137.288V200.748H147.865V190.171Z" fill="#073370"/>
<path d="M158.442 190.171H147.865V200.748H158.442V190.171Z" fill="#073370"/>
<path d="M179.595 190.171H169.018V200.748H179.595V190.171Z" fill="#073370"/>
<path d="M200.748 190.171H190.171V200.748H200.748V190.171Z" fill="#073370"/>
<path d="M221.901 190.171H211.325V200.748H221.901V190.171Z" fill="#073370"/>
<path d="M264.208 190.171H253.631V200.748H264.208V190.171Z" fill="#073370"/>
<path d="M10.3691 200.748H-0.20752V211.325H10.3691V200.748Z" fill="#073370"/>
<path d="M73.8287 200.748H63.2521L63.2521 211.325H73.8287V200.748Z" fill="#073370"/>
<path d="M137.288 200.748H126.712V211.325H137.288V200.748Z" fill="#073370"/>
<path d="M169.018 200.748H158.442L158.442 211.325H169.018V200.748Z" fill="#073370"/>
<path d="M179.595 200.748H169.018V211.325H179.595V200.748Z" fill="#073370"/>
<path d="M221.901 200.748H211.325V211.325H221.901V200.748Z" fill="#073370"/>
<path d="M232.478 200.748H221.901V211.325H232.478V200.748Z" fill="#073370"/>
<path d="M264.208 200.748H253.631V211.325H264.208V200.748Z" fill="#073370"/>
<path d="M10.3691 211.325H-0.20752V221.901H10.3691V211.325Z" fill="#073370"/>
<path d="M31.5223 211.325H20.9457V221.901H31.5223V211.325Z" fill="#073370"/>
<path d="M42.0989 211.325H31.5223V221.901H42.0989V211.325Z" fill="#073370"/>
<path d="M52.6755 211.325H42.0989V221.901H52.6755V211.325Z" fill="#073370"/>
<path d="M73.8287 211.325H63.2521V221.901H73.8287V211.325Z" fill="#073370"/>
<path d="M94.9819 211.325H84.4053V221.901H94.9819V211.325Z" fill="#073370"/>
<path d="M116.135 211.325H105.559V221.901H116.135V211.325Z" fill="#073370"/>
<path d="M158.442 211.325H147.865V221.901H158.442L158.442 211.325Z" fill="#073370"/>
<path d="M179.595 211.325H169.018V221.901H179.595V211.325Z" fill="#073370"/>
<path d="M190.171 211.325H179.595V221.901H190.171V211.325Z" fill="#073370"/>
<path d="M200.748 211.325H190.171V221.901H200.748V211.325Z" fill="#073370"/>
<path d="M211.325 211.325H200.748V221.901H211.325V211.325Z" fill="#073370"/>
<path d="M221.901 211.325H211.325V221.901H221.901V211.325Z" fill="#073370"/>
<path d="M232.478 211.325H221.901V221.901H232.478V211.325Z" fill="#073370"/>
<path d="M243.054 211.325H232.478V221.901H243.054V211.325Z" fill="#073370"/>
<path d="M253.631 211.325H243.054V221.901H253.631V211.325Z" fill="#073370"/>
<path d="M10.3691 221.901H-0.20752V232.478H10.3691V221.901Z" fill="#073370"/>
<path d="M31.5223 221.901H20.9457V232.478H31.5223V221.901Z" fill="#073370"/>
<path d="M42.0989 221.901H31.5223V232.478H42.0989V221.901Z" fill="#073370"/>
<path d="M52.6755 221.901H42.0989V232.478H52.6755V221.901Z" fill="#073370"/>
<path d="M73.8287 221.901H63.2521V232.478H73.8287V221.901Z" fill="#073370"/>
<path d="M147.865 221.901H137.288V232.478H147.865V221.901Z" fill="#073370"/>
<path d="M158.442 221.901H147.865V232.478H158.442V221.901Z" fill="#073370"/>
<path d="M169.018 221.901H158.442V232.478H169.018V221.901Z" fill="#073370"/>
<path d="M190.171 221.901H179.595V232.478H190.171V221.901Z" fill="#073370"/>
<path d="M221.901 221.901H211.325V232.478H221.901V221.901Z" fill="#073370"/>
<path d="M10.3691 232.478H-0.20752V243.054H10.3691V232.478Z" fill="#073370"/>
<path d="M31.5223 232.478H20.9457V243.054H31.5223V232.478Z" fill="#073370"/>
<path d="M42.0989 232.478H31.5223V243.054H42.0989V232.478Z" fill="#073370"/>
<path d="M52.6755 232.478H42.0989V243.054H52.6755V232.478Z" fill="#073370"/>
<path d="M73.8287 232.478H63.2521V243.054H73.8287V232.478Z" fill="#073370"/>
<path d="M105.559 232.478H94.9819V243.054H105.559V232.478Z" fill="#073370"/>
<path d="M147.865 232.478H137.288V243.054H147.865V232.478Z" fill="#073370"/>
<path d="M200.748 232.478H190.171V243.054H200.748V232.478Z" fill="#073370"/>
<path d="M243.054 232.478H232.478V243.054H243.054V232.478Z" fill="#073370"/>
<path d="M10.3691 243.054H-0.20752V253.631H10.3691V243.054Z" fill="#073370"/>
<path d="M73.8287 243.054H63.2521V253.631H73.8287V243.054Z" fill="#073370"/>
<path d="M94.9819 243.054H84.4053V253.631H94.9819V243.054Z" fill="#073370"/>
<path d="M105.559 243.054H94.9819V253.631H105.559V243.054Z" fill="#073370"/>
<path d="M116.135 243.054H105.559V253.631H116.135V243.054Z" fill="#073370"/>
<path d="M147.865 243.054H137.288V253.631H147.865V243.054Z" fill="#073370"/>
<path d="M158.442 243.054H147.865V253.631H158.442V243.054Z" fill="#073370"/>
<path d="M169.018 243.054H158.442V253.631H169.018V243.054Z" fill="#073370"/>
<path d="M179.595 243.054H169.018V253.631H179.595V243.054Z" fill="#073370"/>
<path d="M190.171 243.054H179.595V253.631H190.171V243.054Z" fill="#073370"/>
<path d="M200.748 243.054H190.171V253.631H200.748V243.054Z" fill="#073370"/>
<path d="M221.901 243.054H211.325V253.631H221.901V243.054Z" fill="#073370"/>
<path d="M232.478 243.054H221.901V253.631H232.478V243.054Z" fill="#073370"/>
<path d="M253.631 243.054H243.054V253.631H253.631V243.054Z" fill="#073370"/>
<path d="M264.208 243.054H253.631V253.631H264.208V243.054Z" fill="#073370"/>
<path d="M10.3691 253.631H-0.20752V264.208H10.3691V253.631Z" fill="#073370"/>
<path d="M20.9457 253.631H10.3691V264.208H20.9457V253.631Z" fill="#073370"/>
<path d="M31.5223 253.631H20.9457V264.208H31.5223V253.631Z" fill="#073370"/>
<path d="M42.0989 253.631H31.5223V264.208H42.0989V253.631Z" fill="#073370"/>
<path d="M52.6755 253.631H42.0989V264.208H52.6755V253.631Z" fill="#073370"/>
<path d="M63.2521 253.631H52.6755V264.208H63.2521L63.2521 253.631Z" fill="#073370"/>
<path d="M73.8287 253.631H63.2521L63.2521 264.208H73.8287V253.631Z" fill="#073370"/>
<path d="M105.559 253.631H94.9819V264.208H105.559V253.631Z" fill="#073370"/>
<path d="M116.135 253.631H105.559V264.208H116.135V253.631Z" fill="#073370"/>
<path d="M147.865 253.631H137.288V264.208H147.865V253.631Z" fill="#073370"/>
<path d="M158.442 253.631H147.865V264.208H158.442V253.631Z" fill="#073370"/>
<path d="M190.171 253.631H179.595V264.208H190.171V253.631Z" fill="#073370"/>
<path d="M200.748 253.631H190.171V264.208H200.748V253.631Z" fill="#073370"/>
<path d="M211.325 253.631H200.748V264.208H211.325V253.631Z" fill="#073370"/>
<path d="M243.054 253.631H232.478V264.208H243.054V253.631Z" fill="#073370"/>
<path d="M264.208 253.631H253.631V264.208H264.208V253.631Z" fill="#073370"/>
</g>
<defs>
<clipPath id="clip0_4929_7885">
<rect width="264" height="264" rx="8" fill="white"/>
</clipPath>
</defs>
</svg>
