<svg width="32" height="32" viewBox="0 0 32 32" fill="none" xmlns="http://www.w3.org/2000/svg">
<g clip-path="url(#clip0_4957_75245)">
<path d="M24.0002 5.33337H8.00016C6.5274 5.33337 5.3335 6.52728 5.3335 8.00004V24C5.3335 25.4728 6.5274 26.6667 8.00016 26.6667H24.0002C25.4729 26.6667 26.6668 25.4728 26.6668 24V8.00004C26.6668 6.52728 25.4729 5.33337 24.0002 5.33337Z" stroke="white" stroke-width="2.66667" stroke-linecap="round" stroke-linejoin="round"/>
<path d="M10.6665 14.6666V21.3333" stroke="white" stroke-width="2.66667" stroke-linecap="round" stroke-linejoin="round"/>
<path d="M10.6665 10.6666V10.68" stroke="white" stroke-width="2.66667" stroke-linecap="round" stroke-linejoin="round"/>
<path d="M16 21.3333V14.6666" stroke="white" stroke-width="2.66667" stroke-linecap="round" stroke-linejoin="round"/>
<path d="M21.3333 21.3333V17.3333C21.3333 16.626 21.0524 15.9478 20.5523 15.4477C20.0522 14.9476 19.3739 14.6666 18.6667 14.6666C17.9594 14.6666 17.2811 14.9476 16.781 15.4477C16.281 15.9478 16 16.626 16 17.3333" stroke="white" stroke-width="2.66667" stroke-linecap="round" stroke-linejoin="round"/>
</g>
<defs>
<clipPath id="clip0_4957_75245">
<rect width="32" height="32" fill="white"/>
</clipPath>
</defs>
</svg>
