<svg width="50" height="50" viewBox="0 0 50 50" fill="none" xmlns="http://www.w3.org/2000/svg">
<path d="M27.2251 6.79741L26.4785 3.86104L25.3305 6.66492L21.7729 15.3541L13.7023 10.5557L11.0981 9.00726L12.269 11.8017L15.8975 20.4615L6.79777 22.7752L3.8614 23.5218L6.66529 24.6698L15.3545 28.2274L10.556 36.298L9.00762 38.9022L11.802 37.7313L20.4619 34.1028L22.7756 43.2025L23.5222 46.1389L24.6702 43.335L28.2278 34.6458L36.2983 39.4443L38.9026 40.9927L37.7317 38.1983L34.1031 29.5385L43.2029 27.2248L46.1393 26.4782L43.3354 25.3302L34.6462 21.7725L39.4447 13.702L40.9931 11.0977L38.1987 12.2686L29.5388 15.8972L27.2251 6.79741Z" fill="#35A37B" stroke="white" stroke-width="2"/>
</svg>
