<svg width="660" height="88" viewBox="0 0 660 88" fill="none" xmlns="http://www.w3.org/2000/svg">
<rect width="95" height="40" rx="20" fill="#F5F5F5"/>
<path d="M25.2045 27L20.8068 21.1321H19.4134V27H17.4382V13.9091H19.4134V19.4382H20.0589L25.0064 13.9091H27.4162L22.1811 19.7706L27.6143 27H25.2045ZM28.2672 27L28.2608 25.3445H28.6124C28.8851 25.3445 29.1131 25.2869 29.2963 25.1719C29.4838 25.0526 29.6373 24.8523 29.7566 24.571C29.8759 24.2898 29.9675 23.902 30.0314 23.4077C30.0953 22.9091 30.1422 22.2827 30.1721 21.5284L30.3446 17.1818H37.1969V27H35.324V18.831H32.1152L31.9618 22.1676C31.9235 22.9773 31.8404 23.6847 31.7125 24.2898C31.589 24.8949 31.4078 25.3999 31.1692 25.8047C30.9306 26.2053 30.6238 26.5057 30.2488 26.706C29.8738 26.902 29.4178 27 28.8809 27H28.2672ZM41.3686 24.3217L45.696 17.1818H47.7543V27H45.8814V19.8537L41.5732 27H39.4957V17.1818H41.3686V24.3217ZM54.3054 27.1982C53.3381 27.1982 52.505 26.9915 51.8061 26.5781C51.1115 26.1605 50.5746 25.5746 50.1953 24.8203C49.8203 24.0618 49.6328 23.1733 49.6328 22.1548C49.6328 21.1491 49.8203 20.2628 50.1953 19.4957C50.5746 18.7287 51.103 18.13 51.7805 17.6996C52.4624 17.2692 53.2592 17.054 54.1712 17.054C54.7251 17.054 55.2621 17.1456 55.782 17.3288C56.3018 17.5121 56.7685 17.7997 57.1818 18.1918C57.5952 18.5838 57.9212 19.093 58.1598 19.7195C58.3984 20.3416 58.5178 21.098 58.5178 21.9886V22.6662H50.7131V21.2344H56.6449C56.6449 20.7315 56.5426 20.2862 56.3381 19.8984C56.1335 19.5064 55.8459 19.1974 55.4751 18.9716C55.1087 18.7457 54.6783 18.6328 54.1839 18.6328C53.647 18.6328 53.1783 18.7649 52.7777 19.0291C52.3814 19.2891 52.0746 19.63 51.8572 20.0518C51.6442 20.4695 51.5376 20.9233 51.5376 21.4134V22.532C51.5376 23.1882 51.6527 23.7464 51.8828 24.2067C52.1172 24.6669 52.4432 25.0185 52.8608 25.2614C53.2784 25.5 53.7663 25.6193 54.3246 25.6193C54.6868 25.6193 55.017 25.5682 55.3153 25.4659C55.6136 25.3594 55.8714 25.2017 56.0888 24.9929C56.3061 24.7841 56.4723 24.5263 56.5874 24.2195L58.3963 24.5455C58.2514 25.0781 57.9915 25.5447 57.6165 25.9453C57.2457 26.3416 56.7791 26.6506 56.2166 26.8722C55.6584 27.0895 55.0213 27.1982 54.3054 27.1982ZM67.0424 21.2663V22.9219H61.7243V21.2663H67.0424ZM62.2612 17.1818V27H60.3883V17.1818H62.2612ZM68.3784 17.1818V27H66.5119V17.1818H68.3784ZM69.4675 18.831V17.1818H77.7516V18.831H74.5492V27H72.6827V18.831H69.4675Z" fill="#0F1721"/>
<rect x="103" width="215" height="40" rx="20" fill="#F5F5F5"/>
<path d="M128.205 27L123.807 21.1321H122.413V27H120.438V13.9091H122.413V19.4382H123.059L128.006 13.9091H130.416L125.181 19.7706L130.614 27H128.205ZM135.456 27.1982C134.535 27.1982 133.732 26.9872 133.046 26.5653C132.36 26.1435 131.827 25.5533 131.448 24.7947C131.069 24.0362 130.879 23.1499 130.879 22.1357C130.879 21.1172 131.069 20.2266 131.448 19.4638C131.827 18.701 132.36 18.1087 133.046 17.6868C133.732 17.2649 134.535 17.054 135.456 17.054C136.376 17.054 137.179 17.2649 137.865 17.6868C138.551 18.1087 139.084 18.701 139.463 19.4638C139.843 20.2266 140.032 21.1172 140.032 22.1357C140.032 23.1499 139.843 24.0362 139.463 24.7947C139.084 25.5533 138.551 26.1435 137.865 26.5653C137.179 26.9872 136.376 27.1982 135.456 27.1982ZM135.462 25.5938C136.059 25.5938 136.553 25.4361 136.945 25.1207C137.337 24.8054 137.627 24.3857 137.814 23.8615C138.006 23.3374 138.102 22.7599 138.102 22.1293C138.102 21.5028 138.006 20.9276 137.814 20.4034C137.627 19.875 137.337 19.451 136.945 19.1314C136.553 18.8118 136.059 18.652 135.462 18.652C134.861 18.652 134.363 18.8118 133.966 19.1314C133.574 19.451 133.282 19.875 133.091 20.4034C132.903 20.9276 132.809 21.5028 132.809 22.1293C132.809 22.7599 132.903 23.3374 133.091 23.8615C133.282 24.3857 133.574 24.8054 133.966 25.1207C134.363 25.4361 134.861 25.5938 135.462 25.5938ZM148.57 21.2663V22.9219H143.252V21.2663H148.57ZM143.789 17.1818V27H141.916V17.1818H143.789ZM149.906 17.1818V27H148.039V17.1818H149.906ZM150.995 18.831V17.1818H159.279V18.831H156.077V27H154.21V18.831H150.995ZM163.451 27.2173C162.828 27.2173 162.266 27.1023 161.763 26.8722C161.26 26.6378 160.862 26.299 160.568 25.8558C160.278 25.4126 160.133 24.8693 160.133 24.2259C160.133 23.6719 160.24 23.2159 160.453 22.858C160.666 22.5 160.953 22.2166 161.316 22.0078C161.678 21.799 162.083 21.6413 162.53 21.5348C162.978 21.4283 163.434 21.3473 163.898 21.2919C164.486 21.2237 164.963 21.1683 165.33 21.1257C165.696 21.0788 165.963 21.0043 166.129 20.902C166.295 20.7997 166.378 20.6335 166.378 20.4034V20.3587C166.378 19.8004 166.221 19.3679 165.905 19.0611C165.594 18.7543 165.13 18.6009 164.512 18.6009C163.868 18.6009 163.361 18.7436 162.99 19.0291C162.624 19.3104 162.37 19.6236 162.23 19.9688L160.434 19.5597C160.647 18.9631 160.958 18.4815 161.367 18.1151C161.78 17.7443 162.255 17.4759 162.792 17.3097C163.329 17.1392 163.894 17.054 164.486 17.054C164.878 17.054 165.294 17.1009 165.733 17.1946C166.176 17.2841 166.589 17.4503 166.973 17.6932C167.36 17.9361 167.678 18.2834 167.925 18.7351C168.172 19.1825 168.296 19.7642 168.296 20.4801V27H166.429V25.6577H166.353C166.229 25.9048 166.044 26.1477 165.797 26.3864C165.549 26.625 165.232 26.8232 164.844 26.9808C164.456 27.1385 163.992 27.2173 163.451 27.2173ZM163.866 25.6832C164.395 25.6832 164.846 25.5788 165.221 25.37C165.6 25.1612 165.888 24.8885 166.084 24.5518C166.284 24.2109 166.385 23.8466 166.385 23.4588V22.1932C166.316 22.2614 166.184 22.3253 165.988 22.3849C165.797 22.4403 165.577 22.4893 165.33 22.532C165.083 22.5703 164.842 22.6065 164.608 22.6406C164.373 22.6705 164.177 22.696 164.02 22.7173C163.649 22.7642 163.31 22.843 163.003 22.9538C162.701 23.0646 162.458 23.2244 162.275 23.4332C162.096 23.6378 162.006 23.9105 162.006 24.2514C162.006 24.7244 162.181 25.0824 162.53 25.3253C162.88 25.5639 163.325 25.6832 163.866 25.6832ZM170.591 27V17.1818H172.503V21.2983H173.423L176.664 17.1818H179.029L175.226 21.9567L179.074 27H176.702L173.743 23.0753H172.503V27H170.591ZM179.759 18.831V17.1818H188.043V18.831H184.84V27H182.974V18.831H179.759ZM196.468 21.2663V22.9219H191.15V21.2663H196.468ZM191.687 17.1818V27H189.814V17.1818H191.687ZM197.804 17.1818V27H195.938V17.1818H197.804ZM201.549 20.5568H204.4C205.602 20.5568 206.526 20.8551 207.174 21.4517C207.822 22.0483 208.146 22.8175 208.146 23.7592C208.146 24.3729 208.001 24.9247 207.711 25.4148C207.421 25.9048 206.997 26.2926 206.439 26.5781C205.881 26.8594 205.201 27 204.4 27H200.111V17.1818H201.984V25.3509H204.4C204.95 25.3509 205.401 25.2081 205.755 24.9226C206.109 24.6328 206.286 24.2642 206.286 23.8168C206.286 23.3437 206.109 22.9581 205.755 22.6598C205.401 22.3572 204.95 22.206 204.4 22.206H201.549V20.5568ZM209.539 27V17.1818H211.45V27H209.539ZM215.638 24.3217L219.966 17.1818H222.024V27H220.151V19.8537L215.843 27H213.765V17.1818H215.638V24.3217ZM219.147 13.858H220.72C220.72 14.5781 220.464 15.1641 219.953 15.6158C219.446 16.0632 218.76 16.2869 217.895 16.2869C217.034 16.2869 216.35 16.0632 215.843 15.6158C215.336 15.1641 215.082 14.5781 215.082 13.858H216.648C216.648 14.1776 216.742 14.4609 216.929 14.7081C217.117 14.951 217.439 15.0724 217.895 15.0724C218.342 15.0724 218.662 14.951 218.853 14.7081C219.049 14.4652 219.147 14.1818 219.147 13.858ZM228.307 18.831V17.1818H236.591V18.831H233.389V27H231.523V18.831H228.307ZM242.137 27.1982C241.17 27.1982 240.337 26.9915 239.638 26.5781C238.944 26.1605 238.407 25.5746 238.027 24.8203C237.652 24.0618 237.465 23.1733 237.465 22.1548C237.465 21.1491 237.652 20.2628 238.027 19.4957C238.407 18.7287 238.935 18.13 239.613 17.6996C240.294 17.2692 241.091 17.054 242.003 17.054C242.557 17.054 243.094 17.1456 243.614 17.3288C244.134 17.5121 244.6 17.7997 245.014 18.1918C245.427 18.5838 245.753 19.093 245.992 19.7195C246.23 20.3416 246.35 21.098 246.35 21.9886V22.6662H238.545V21.2344H244.477C244.477 20.7315 244.375 20.2862 244.17 19.8984C243.966 19.5064 243.678 19.1974 243.307 18.9716C242.941 18.7457 242.51 18.6328 242.016 18.6328C241.479 18.6328 241.01 18.7649 240.61 19.0291C240.213 19.2891 239.907 19.63 239.689 20.0518C239.476 20.4695 239.37 20.9233 239.37 21.4134V22.532C239.37 23.1882 239.485 23.7464 239.715 24.2067C239.949 24.6669 240.275 25.0185 240.693 25.2614C241.11 25.5 241.598 25.6193 242.157 25.6193C242.519 25.6193 242.849 25.5682 243.147 25.4659C243.446 25.3594 243.703 25.2017 243.921 24.9929C244.138 24.7841 244.304 24.5263 244.419 24.2195L246.228 24.5455C246.083 25.0781 245.824 25.5447 245.449 25.9453C245.078 26.3416 244.611 26.6506 244.049 26.8722C243.49 27.0895 242.853 27.1982 242.137 27.1982ZM247.447 27L247.441 25.3445H247.792C248.065 25.3445 248.293 25.2869 248.476 25.1719C248.664 25.0526 248.817 24.8523 248.936 24.571C249.056 24.2898 249.147 23.902 249.211 23.4077C249.275 22.9091 249.322 22.2827 249.352 21.5284L249.524 17.1818H256.377V27H254.504V18.831H251.295L251.142 22.1676C251.103 22.9773 251.02 23.6847 250.892 24.2898C250.769 24.8949 250.588 25.3999 250.349 25.8047C250.11 26.2053 249.803 26.5057 249.428 26.706C249.053 26.902 248.597 27 248.061 27H247.447ZM262.907 27.1982C261.94 27.1982 261.107 26.9915 260.408 26.5781C259.713 26.1605 259.176 25.5746 258.797 24.8203C258.422 24.0618 258.234 23.1733 258.234 22.1548C258.234 21.1491 258.422 20.2628 258.797 19.4957C259.176 18.7287 259.705 18.13 260.382 17.6996C261.064 17.2692 261.861 17.054 262.773 17.054C263.327 17.054 263.864 17.1456 264.384 17.3288C264.903 17.5121 265.37 17.7997 265.783 18.1918C266.197 18.5838 266.523 19.093 266.761 19.7195C267 20.3416 267.119 21.098 267.119 21.9886V22.6662H259.315V21.2344H265.246C265.246 20.7315 265.144 20.2862 264.94 19.8984C264.735 19.5064 264.447 19.1974 264.077 18.9716C263.71 18.7457 263.28 18.6328 262.786 18.6328C262.249 18.6328 261.78 18.7649 261.379 19.0291C260.983 19.2891 260.676 19.63 260.459 20.0518C260.246 20.4695 260.139 20.9233 260.139 21.4134V22.532C260.139 23.1882 260.254 23.7464 260.484 24.2067C260.719 24.6669 261.045 25.0185 261.462 25.2614C261.88 25.5 262.368 25.6193 262.926 25.6193C263.288 25.6193 263.619 25.5682 263.917 25.4659C264.215 25.3594 264.473 25.2017 264.69 24.9929C264.908 24.7841 265.074 24.5263 265.189 24.2195L266.998 24.5455C266.853 25.0781 266.593 25.5447 266.218 25.9453C265.847 26.3416 265.381 26.6506 264.818 26.8722C264.26 27.0895 263.623 27.1982 262.907 27.1982ZM273.215 30.343V13.9091H275.126V30.343H273.215ZM273.215 27.1982C272.52 27.1982 271.888 27.0788 271.317 26.8402C270.746 26.5973 270.253 26.2521 269.84 25.8047C269.427 25.3572 269.107 24.8224 268.881 24.2003C268.66 23.5781 268.549 22.8899 268.549 22.1357C268.549 21.3729 268.66 20.6804 268.881 20.0582C269.107 19.4361 269.427 18.9013 269.84 18.4538C270.253 18.0064 270.746 17.6612 271.317 17.4183C271.888 17.1754 272.52 17.054 273.215 17.054H273.688V27.1982H273.215ZM273.215 25.5874H273.483V18.6648H273.215C272.755 18.6648 272.354 18.7585 272.013 18.946C271.672 19.1293 271.389 19.3828 271.163 19.7067C270.937 20.0263 270.767 20.3949 270.652 20.8125C270.541 21.2301 270.486 21.6712 270.486 22.1357C270.486 22.7578 270.586 23.331 270.786 23.8551C270.986 24.375 271.289 24.7947 271.694 25.1143C272.099 25.4297 272.606 25.5874 273.215 25.5874ZM275.126 27.1982H274.647V17.054H275.126C275.821 17.054 276.454 17.1754 277.025 17.4183C277.596 17.6612 278.086 18.0064 278.495 18.4538C278.908 18.9013 279.226 19.4361 279.447 20.0582C279.673 20.6804 279.786 21.3729 279.786 22.1357C279.786 22.8899 279.673 23.5781 279.447 24.2003C279.226 24.8224 278.908 25.3572 278.495 25.8047C278.086 26.2521 277.596 26.5973 277.025 26.8402C276.454 27.0788 275.821 27.1982 275.126 27.1982ZM275.126 25.5874C275.586 25.5874 275.987 25.4979 276.328 25.3189C276.669 25.1357 276.952 24.8842 277.178 24.5646C277.404 24.2408 277.572 23.8722 277.683 23.4588C277.794 23.0412 277.849 22.6001 277.849 22.1357C277.849 21.5178 277.749 20.9467 277.549 20.4226C277.353 19.8942 277.052 19.4702 276.648 19.1506C276.243 18.8267 275.736 18.6648 275.126 18.6648H274.851V25.5874H275.126ZM285.795 27.1982C284.875 27.1982 284.072 26.9872 283.386 26.5653C282.7 26.1435 282.167 25.5533 281.788 24.7947C281.408 24.0362 281.219 23.1499 281.219 22.1357C281.219 21.1172 281.408 20.2266 281.788 19.4638C282.167 18.701 282.7 18.1087 283.386 17.6868C284.072 17.2649 284.875 17.054 285.795 17.054C286.716 17.054 287.519 17.2649 288.205 17.6868C288.891 18.1087 289.424 18.701 289.803 19.4638C290.183 20.2266 290.372 21.1172 290.372 22.1357C290.372 23.1499 290.183 24.0362 289.803 24.7947C289.424 25.5533 288.891 26.1435 288.205 26.5653C287.519 26.9872 286.716 27.1982 285.795 27.1982ZM285.802 25.5938C286.398 25.5938 286.893 25.4361 287.285 25.1207C287.677 24.8054 287.967 24.3857 288.154 23.8615C288.346 23.3374 288.442 22.7599 288.442 22.1293C288.442 21.5028 288.346 20.9276 288.154 20.4034C287.967 19.875 287.677 19.451 287.285 19.1314C286.893 18.8118 286.398 18.652 285.802 18.652C285.201 18.652 284.702 18.8118 284.306 19.1314C283.914 19.451 283.622 19.875 283.43 20.4034C283.243 20.9276 283.149 21.5028 283.149 22.1293C283.149 22.7599 283.243 23.3374 283.43 23.8615C283.622 24.3857 283.914 24.8054 284.306 25.1207C284.702 25.4361 285.201 25.5938 285.802 25.5938ZM298.91 21.2663V22.9219H293.591V21.2663H298.91ZM294.128 17.1818V27H292.256V17.1818H294.128ZM300.246 17.1818V27H298.379V17.1818H300.246Z" fill="#0F1721"/>
<rect x="326" width="234" height="40" rx="20" fill="#F5F5F5"/>
<path d="M342.447 30.1641V25.3253H343.31C343.604 25.0781 343.879 24.7266 344.135 24.2706C344.391 23.8146 344.608 23.1989 344.787 22.4233C344.966 21.6477 345.089 20.6527 345.158 19.4382L345.464 13.9091H353.538V25.3253H355.021V30.1449H353.129V27H344.339V30.1641H342.447ZM345.637 25.3253H351.646V15.6094H347.254L347.05 19.4382C346.994 20.3629 346.903 21.1939 346.775 21.9311C346.651 22.6683 346.491 23.3203 346.295 23.8871C346.104 24.4496 345.884 24.929 345.637 25.3253ZM359.638 27.2173C359.016 27.2173 358.453 27.1023 357.951 26.8722C357.448 26.6378 357.049 26.299 356.755 25.8558C356.466 25.4126 356.321 24.8693 356.321 24.2259C356.321 23.6719 356.427 23.2159 356.64 22.858C356.853 22.5 357.141 22.2166 357.503 22.0078C357.865 21.799 358.27 21.6413 358.718 21.5348C359.165 21.4283 359.621 21.3473 360.086 21.2919C360.674 21.2237 361.151 21.1683 361.517 21.1257C361.884 21.0788 362.15 21.0043 362.316 20.902C362.483 20.7997 362.566 20.6335 362.566 20.4034V20.3587C362.566 19.8004 362.408 19.3679 362.093 19.0611C361.782 18.7543 361.317 18.6009 360.699 18.6009C360.056 18.6009 359.549 18.7436 359.178 19.0291C358.811 19.3104 358.558 19.6236 358.417 19.9688L356.621 19.5597C356.834 18.9631 357.145 18.4815 357.554 18.1151C357.968 17.7443 358.443 17.4759 358.98 17.3097C359.517 17.1392 360.081 17.054 360.674 17.054C361.066 17.054 361.481 17.1009 361.92 17.1946C362.363 17.2841 362.777 17.4503 363.16 17.6932C363.548 17.9361 363.865 18.2834 364.113 18.7351C364.36 19.1825 364.483 19.7642 364.483 20.4801V27H362.617V25.6577H362.54C362.417 25.9048 362.231 26.1477 361.984 26.3864C361.737 26.625 361.419 26.8232 361.032 26.9808C360.644 27.1385 360.179 27.2173 359.638 27.2173ZM360.054 25.6832C360.582 25.6832 361.034 25.5788 361.409 25.37C361.788 25.1612 362.076 24.8885 362.272 24.5518C362.472 24.2109 362.572 23.8466 362.572 23.4588V22.1932C362.504 22.2614 362.372 22.3253 362.176 22.3849C361.984 22.4403 361.765 22.4893 361.517 22.532C361.27 22.5703 361.029 22.6065 360.795 22.6406C360.561 22.6705 360.365 22.696 360.207 22.7173C359.836 22.7642 359.498 22.843 359.191 22.9538C358.888 23.0646 358.645 23.2244 358.462 23.4332C358.283 23.6378 358.194 23.9105 358.194 24.2514C358.194 24.7244 358.368 25.0824 358.718 25.3253C359.067 25.5639 359.512 25.6832 360.054 25.6832ZM365.561 18.831V17.1818H373.845V18.831H370.643V27H368.776V18.831H365.561ZM378.017 27.2173C377.395 27.2173 376.832 27.1023 376.33 26.8722C375.827 26.6378 375.428 26.299 375.134 25.8558C374.844 25.4126 374.7 24.8693 374.7 24.2259C374.7 23.6719 374.806 23.2159 375.019 22.858C375.232 22.5 375.52 22.2166 375.882 22.0078C376.244 21.799 376.649 21.6413 377.097 21.5348C377.544 21.4283 378 21.3473 378.464 21.2919C379.053 21.2237 379.53 21.1683 379.896 21.1257C380.263 21.0788 380.529 21.0043 380.695 20.902C380.862 20.7997 380.945 20.6335 380.945 20.4034V20.3587C380.945 19.8004 380.787 19.3679 380.472 19.0611C380.161 18.7543 379.696 18.6009 379.078 18.6009C378.435 18.6009 377.928 18.7436 377.557 19.0291C377.19 19.3104 376.937 19.6236 376.796 19.9688L375 19.5597C375.213 18.9631 375.524 18.4815 375.933 18.1151C376.347 17.7443 376.822 17.4759 377.359 17.3097C377.896 17.1392 378.46 17.054 379.053 17.054C379.445 17.054 379.86 17.1009 380.299 17.1946C380.742 17.2841 381.156 17.4503 381.539 17.6932C381.927 17.9361 382.244 18.2834 382.491 18.7351C382.739 19.1825 382.862 19.7642 382.862 20.4801V27H380.996V25.6577H380.919C380.795 25.9048 380.61 26.1477 380.363 26.3864C380.116 26.625 379.798 26.8232 379.411 26.9808C379.023 27.1385 378.558 27.2173 378.017 27.2173ZM378.433 25.6832C378.961 25.6832 379.413 25.5788 379.788 25.37C380.167 25.1612 380.455 24.8885 380.651 24.5518C380.851 24.2109 380.951 23.8466 380.951 23.4588V22.1932C380.883 22.2614 380.751 22.3253 380.555 22.3849C380.363 22.4403 380.143 22.4893 379.896 22.532C379.649 22.5703 379.408 22.6065 379.174 22.6406C378.94 22.6705 378.744 22.696 378.586 22.7173C378.215 22.7642 377.876 22.843 377.57 22.9538C377.267 23.0646 377.024 23.2244 376.841 23.4332C376.662 23.6378 376.572 23.9105 376.572 24.2514C376.572 24.7244 376.747 25.0824 377.097 25.3253C377.446 25.5639 377.891 25.6832 378.433 25.6832ZM391.544 24.3217L395.872 17.1818H397.93V27H396.057V19.8537L391.749 27H389.672V17.1818H391.544V24.3217ZM404.763 27V17.1818H408.835C409.943 17.1818 410.821 17.4183 411.469 17.8913C412.116 18.3601 412.44 18.9972 412.44 19.8026C412.44 20.3778 412.257 20.8338 411.89 21.1705C411.524 21.5071 411.038 21.733 410.433 21.848C410.872 21.8991 411.275 22.0312 411.641 22.2443C412.008 22.4531 412.302 22.7344 412.523 23.0881C412.749 23.4418 412.862 23.8636 412.862 24.3537C412.862 24.8736 412.728 25.3338 412.459 25.7344C412.191 26.1307 411.801 26.4418 411.29 26.6676C410.782 26.8892 410.171 27 409.455 27H404.763ZM406.559 25.402H409.455C409.928 25.402 410.299 25.2891 410.567 25.0632C410.836 24.8374 410.97 24.5305 410.97 24.1428C410.97 23.6868 410.836 23.3288 410.567 23.0689C410.299 22.8047 409.928 22.6726 409.455 22.6726H406.559V25.402ZM406.559 21.2727H408.854C409.212 21.2727 409.519 21.2216 409.775 21.1193C410.035 21.017 410.233 20.8722 410.369 20.6847C410.51 20.4929 410.58 20.267 410.58 20.0071C410.58 19.6278 410.425 19.3317 410.113 19.1186C409.802 18.9055 409.376 18.799 408.835 18.799H406.559V21.2727ZM414.709 30.6818V17.1818H416.575V18.7734H416.735C416.846 18.5689 417.006 18.3324 417.214 18.0639C417.423 17.7955 417.713 17.5611 418.084 17.3608C418.454 17.1562 418.944 17.054 419.554 17.054C420.346 17.054 421.054 17.2543 421.676 17.6548C422.298 18.0554 422.786 18.6328 423.14 19.3871C423.498 20.1413 423.677 21.049 423.677 22.1101C423.677 23.1712 423.5 24.081 423.146 24.8395C422.792 25.5937 422.307 26.1754 421.689 26.5845C421.071 26.9893 420.366 27.1918 419.573 27.1918C418.976 27.1918 418.488 27.0916 418.109 26.8913C417.734 26.6911 417.44 26.4567 417.227 26.1882C417.014 25.9197 416.85 25.6811 416.735 25.4723H416.62V30.6818H414.709ZM416.581 22.0909C416.581 22.7812 416.682 23.3864 416.882 23.9062C417.082 24.4261 417.372 24.8331 417.751 25.1271C418.131 25.4169 418.595 25.5618 419.145 25.5618C419.716 25.5618 420.193 25.4105 420.577 25.108C420.96 24.8011 421.25 24.3857 421.446 23.8615C421.646 23.3374 421.746 22.7472 421.746 22.0909C421.746 21.4432 421.648 20.8615 421.452 20.3459C421.26 19.8303 420.971 19.4233 420.583 19.125C420.199 18.8267 419.72 18.6776 419.145 18.6776C418.591 18.6776 418.122 18.8203 417.738 19.1058C417.359 19.3913 417.072 19.7898 416.876 20.3011C416.68 20.8125 416.581 21.4091 416.581 22.0909ZM429.8 27.1982C428.832 27.1982 427.999 26.9915 427.3 26.5781C426.606 26.1605 426.069 25.5746 425.689 24.8203C425.314 24.0618 425.127 23.1733 425.127 22.1548C425.127 21.1491 425.314 20.2628 425.689 19.4957C426.069 18.7287 426.597 18.13 427.275 17.6996C427.956 17.2692 428.753 17.054 429.665 17.054C430.219 17.054 430.756 17.1456 431.276 17.3288C431.796 17.5121 432.263 17.7997 432.676 18.1918C433.089 18.5838 433.415 19.093 433.654 19.7195C433.893 20.3416 434.012 21.098 434.012 21.9886V22.6662H426.207V21.2344H432.139C432.139 20.7315 432.037 20.2862 431.832 19.8984C431.628 19.5064 431.34 19.1974 430.969 18.9716C430.603 18.7457 430.172 18.6328 429.678 18.6328C429.141 18.6328 428.672 18.7649 428.272 19.0291C427.876 19.2891 427.569 19.63 427.351 20.0518C427.138 20.4695 427.032 20.9233 427.032 21.4134V22.532C427.032 23.1882 427.147 23.7464 427.377 24.2067C427.611 24.6669 427.937 25.0185 428.355 25.2614C428.773 25.5 429.26 25.6193 429.819 25.6193C430.181 25.6193 430.511 25.5682 430.809 25.4659C431.108 25.3594 431.366 25.2017 431.583 24.9929C431.8 24.7841 431.966 24.5263 432.081 24.2195L433.89 24.5455C433.746 25.0781 433.486 25.5447 433.111 25.9453C432.74 26.3416 432.273 26.6506 431.711 26.8722C431.153 27.0895 430.515 27.1982 429.8 27.1982ZM441.392 24.6349L444.563 17.1818H446.212L442.102 27H440.683L436.656 17.1818H438.286L441.392 24.6349ZM437.755 17.1818V27H435.882V17.1818H437.755ZM445.081 27V17.1818H446.941V27H445.081ZM455.093 27V18.8118H452.741C452.183 18.8118 451.748 18.9418 451.437 19.2017C451.126 19.4616 450.97 19.8026 450.97 20.2244C450.97 20.642 451.113 20.9787 451.398 21.2344C451.688 21.4858 452.093 21.6115 452.613 21.6115H455.649V23.1584H452.613C451.888 23.1584 451.262 23.0391 450.734 22.8004C450.21 22.5575 449.805 22.2145 449.519 21.7713C449.238 21.3281 449.097 20.804 449.097 20.1989C449.097 19.581 449.242 19.0483 449.532 18.6009C449.826 18.1491 450.246 17.7997 450.791 17.5526C451.341 17.3054 451.991 17.1818 452.741 17.1818H456.889V27H455.093ZM448.65 27L451.418 22.0398H453.374L450.606 27H448.65ZM462.738 29.8317V25.3445H463.537C463.742 25.157 463.914 24.9332 464.055 24.6733C464.2 24.4134 464.321 24.1044 464.419 23.7464C464.521 23.3885 464.607 22.9709 464.675 22.4936C464.743 22.0121 464.803 21.4624 464.854 20.8445L465.161 17.1818H471.834V25.3445H473.343V29.8317H471.476V27H464.63V29.8317H462.738ZM465.583 25.3445H469.968V18.8182H466.874L466.669 20.8445C466.571 21.8757 466.448 22.7706 466.298 23.5291C466.149 24.2834 465.911 24.8885 465.583 25.3445ZM479.096 27.1982C478.176 27.1982 477.373 26.9872 476.686 26.5653C476 26.1435 475.468 25.5533 475.088 24.7947C474.709 24.0362 474.52 23.1499 474.52 22.1357C474.52 21.1172 474.709 20.2266 475.088 19.4638C475.468 18.701 476 18.1087 476.686 17.6868C477.373 17.2649 478.176 17.054 479.096 17.054C480.017 17.054 480.82 17.2649 481.506 17.6868C482.192 18.1087 482.725 18.701 483.104 19.4638C483.483 20.2266 483.673 21.1172 483.673 22.1357C483.673 23.1499 483.483 24.0362 483.104 24.7947C482.725 25.5533 482.192 26.1435 481.506 26.5653C480.82 26.9872 480.017 27.1982 479.096 27.1982ZM479.103 25.5938C479.699 25.5938 480.194 25.4361 480.586 25.1207C480.978 24.8054 481.267 24.3857 481.455 23.8615C481.647 23.3374 481.743 22.7599 481.743 22.1293C481.743 21.5028 481.647 20.9276 481.455 20.4034C481.267 19.875 480.978 19.451 480.586 19.1314C480.194 18.8118 479.699 18.652 479.103 18.652C478.502 18.652 478.003 18.8118 477.607 19.1314C477.215 19.451 476.923 19.875 476.731 20.4034C476.544 20.9276 476.45 21.5028 476.45 22.1293C476.45 22.7599 476.544 23.3374 476.731 23.8615C476.923 24.3857 477.215 24.8054 477.607 25.1207C478.003 25.4361 478.502 25.5938 479.103 25.5938ZM489.692 27.1982C488.742 27.1982 487.923 26.983 487.237 26.5526C486.556 26.1179 486.031 25.5192 485.665 24.7564C485.298 23.9936 485.115 23.12 485.115 22.1357C485.115 21.1385 485.303 20.2585 485.678 19.4957C486.053 18.7287 486.581 18.13 487.263 17.6996C487.945 17.2692 488.748 17.054 489.673 17.054C490.419 17.054 491.083 17.1925 491.667 17.4695C492.251 17.7422 492.722 18.1257 493.08 18.62C493.442 19.1143 493.657 19.6918 493.725 20.3523H491.865C491.763 19.892 491.529 19.4957 491.162 19.1634C490.8 18.831 490.314 18.6648 489.705 18.6648C489.172 18.6648 488.705 18.8054 488.305 19.0866C487.909 19.3636 487.6 19.7599 487.378 20.2756C487.156 20.7869 487.046 21.392 487.046 22.0909C487.046 22.8068 487.154 23.4247 487.372 23.9446C487.589 24.4645 487.896 24.8672 488.292 25.1527C488.693 25.4382 489.164 25.581 489.705 25.581C490.067 25.581 490.395 25.5149 490.689 25.3828C490.987 25.2464 491.237 25.0526 491.437 24.8011C491.642 24.5497 491.784 24.2472 491.865 23.8935H493.725C493.657 24.5284 493.45 25.0952 493.105 25.5938C492.76 26.0923 492.298 26.4844 491.718 26.7699C491.143 27.0554 490.468 27.1982 489.692 27.1982ZM494.776 18.831V17.1818H503.06V18.831H499.858V27H497.991V18.831H494.776ZM507.232 27.2173C506.61 27.2173 506.047 27.1023 505.544 26.8722C505.042 26.6378 504.643 26.299 504.349 25.8558C504.059 25.4126 503.914 24.8693 503.914 24.2259C503.914 23.6719 504.021 23.2159 504.234 22.858C504.447 22.5 504.735 22.2166 505.097 22.0078C505.459 21.799 505.864 21.6413 506.311 21.5348C506.759 21.4283 507.215 21.3473 507.679 21.2919C508.267 21.2237 508.745 21.1683 509.111 21.1257C509.478 21.0788 509.744 21.0043 509.91 20.902C510.076 20.7997 510.159 20.6335 510.159 20.4034V20.3587C510.159 19.8004 510.002 19.3679 509.686 19.0611C509.375 18.7543 508.911 18.6009 508.293 18.6009C507.65 18.6009 507.142 18.7436 506.772 19.0291C506.405 19.3104 506.152 19.6236 506.011 19.9688L504.215 19.5597C504.428 18.9631 504.739 18.4815 505.148 18.1151C505.561 17.7443 506.037 17.4759 506.574 17.3097C507.11 17.1392 507.675 17.054 508.267 17.054C508.659 17.054 509.075 17.1009 509.514 17.1946C509.957 17.2841 510.37 17.4503 510.754 17.6932C511.142 17.9361 511.459 18.2834 511.706 18.7351C511.953 19.1825 512.077 19.7642 512.077 20.4801V27H510.211V25.6577H510.134C510.01 25.9048 509.825 26.1477 509.578 26.3864C509.331 26.625 509.013 26.8232 508.625 26.9808C508.238 27.1385 507.773 27.2173 507.232 27.2173ZM507.647 25.6832C508.176 25.6832 508.627 25.5788 509.002 25.37C509.382 25.1612 509.669 24.8885 509.865 24.5518C510.066 24.2109 510.166 23.8466 510.166 23.4588V22.1932C510.098 22.2614 509.966 22.3253 509.77 22.3849C509.578 22.4403 509.358 22.4893 509.111 22.532C508.864 22.5703 508.623 22.6065 508.389 22.6406C508.154 22.6705 507.958 22.696 507.801 22.7173C507.43 22.7642 507.091 22.843 506.784 22.9538C506.482 23.0646 506.239 23.2244 506.056 23.4332C505.877 23.6378 505.787 23.9105 505.787 24.2514C505.787 24.7244 505.962 25.0824 506.311 25.3253C506.661 25.5639 507.106 25.6832 507.647 25.6832ZM514.373 27V17.1818H518.444C519.552 17.1818 520.43 17.4183 521.078 17.8913C521.726 18.3601 522.05 18.9972 522.05 19.8026C522.05 20.3778 521.866 20.8338 521.5 21.1705C521.133 21.5071 520.648 21.733 520.042 21.848C520.481 21.8991 520.884 22.0312 521.251 22.2443C521.617 22.4531 521.911 22.7344 522.133 23.0881C522.358 23.4418 522.471 23.8636 522.471 24.3537C522.471 24.8736 522.337 25.3338 522.069 25.7344C521.8 26.1307 521.41 26.4418 520.899 26.6676C520.392 26.8892 519.78 27 519.064 27H514.373ZM516.169 25.402H519.064C519.537 25.402 519.908 25.2891 520.177 25.0632C520.445 24.8374 520.579 24.5305 520.579 24.1428C520.579 23.6868 520.445 23.3288 520.177 23.0689C519.908 22.8047 519.537 22.6726 519.064 22.6726H516.169V25.402ZM516.169 21.2727H518.464C518.822 21.2727 519.128 21.2216 519.384 21.1193C519.644 21.017 519.842 20.8722 519.979 20.6847C520.119 20.4929 520.189 20.267 520.189 20.0071C520.189 19.6278 520.034 19.3317 519.723 19.1186C519.412 18.9055 518.986 18.799 518.444 18.799H516.169V21.2727ZM524.318 27V17.1818H526.229V21.2983H527.15L530.39 17.1818H532.756L528.952 21.9567L532.8 27H530.429L527.469 23.0753H526.229V27H524.318ZM535.908 24.3217L540.235 17.1818H542.293V27H540.42V19.8537L536.112 27H534.035V17.1818H535.908V24.3217Z" fill="#0F1721"/>
<rect y="48" width="201" height="40" rx="20" fill="#F5F5F5"/>
<path d="M25.2045 75L20.8068 69.1321H19.4134V75H17.4382V61.9091H19.4134V67.4382H20.0589L25.0064 61.9091H27.4162L22.1811 67.7706L27.6143 75H25.2045ZM32.4556 75.1982C31.5352 75.1982 30.7319 74.9872 30.0458 74.5653C29.3597 74.1435 28.8271 73.5533 28.4478 72.7947C28.0685 72.0362 27.8789 71.1499 27.8789 70.1357C27.8789 69.1172 28.0685 68.2266 28.4478 67.4638C28.8271 66.701 29.3597 66.1087 30.0458 65.6868C30.7319 65.2649 31.5352 65.054 32.4556 65.054C33.3761 65.054 34.1793 65.2649 34.8654 65.6868C35.5515 66.1087 36.0842 66.701 36.4634 67.4638C36.8427 68.2266 37.0323 69.1172 37.0323 70.1357C37.0323 71.1499 36.8427 72.0362 36.4634 72.7947C36.0842 73.5533 35.5515 74.1435 34.8654 74.5653C34.1793 74.9872 33.3761 75.1982 32.4556 75.1982ZM32.462 73.5938C33.0586 73.5938 33.5529 73.4361 33.945 73.1207C34.337 72.8054 34.6268 72.3857 34.8143 71.8615C35.006 71.3374 35.1019 70.7599 35.1019 70.1293C35.1019 69.5028 35.006 68.9276 34.8143 68.4034C34.6268 67.875 34.337 67.451 33.945 67.1314C33.5529 66.8118 33.0586 66.652 32.462 66.652C31.8612 66.652 31.3626 66.8118 30.9663 67.1314C30.5742 67.451 30.2823 67.875 30.0906 68.4034C29.9031 68.9276 29.8093 69.5028 29.8093 70.1293C29.8093 70.7599 29.9031 71.3374 30.0906 71.8615C30.2823 72.3857 30.5742 72.8054 30.9663 73.1207C31.3626 73.4361 31.8612 73.5938 32.462 73.5938ZM38.1422 75L38.1358 73.3445H38.4874C38.7601 73.3445 38.9881 73.2869 39.1713 73.1719C39.3588 73.0526 39.5123 72.8523 39.6316 72.571C39.7509 72.2898 39.8425 71.902 39.9064 71.4077C39.9703 70.9091 40.0172 70.2827 40.0471 69.5284L40.2196 65.1818H47.0719V75H45.199V66.831H41.9902L41.8368 70.1676C41.7985 70.9773 41.7154 71.6847 41.5875 72.2898C41.464 72.8949 41.2828 73.3999 41.0442 73.8047C40.8056 74.2053 40.4988 74.5057 40.1238 74.706C39.7488 74.902 39.2928 75 38.7559 75H38.1422ZM51.2436 72.3217L55.571 65.1818H57.6293V75H55.7564V67.8537L51.4482 75H49.3707V65.1818H51.2436V72.3217ZM67.8303 65.1818V75H65.9638V65.1818H67.8303ZM67.0185 69.7393V71.3885C66.7244 71.5078 66.4134 71.6143 66.0852 71.7081C65.7571 71.7976 65.4119 71.8679 65.0497 71.919C64.6875 71.9702 64.3104 71.9957 63.9183 71.9957C62.7038 71.9957 61.7386 71.6996 61.0227 71.1072C60.3068 70.5107 59.9489 69.5987 59.9489 68.3714V65.1626H61.8089V68.3714C61.8089 68.8359 61.8942 69.2131 62.0646 69.5028C62.2351 69.7926 62.478 70.0057 62.7933 70.142C63.1087 70.2784 63.4837 70.3466 63.9183 70.3466C64.4936 70.3466 65.0241 70.2933 65.5099 70.1868C66 70.076 66.5028 69.9268 67.0185 69.7393ZM74.3542 75.1982C73.3869 75.1982 72.5538 74.9915 71.8549 74.5781C71.1603 74.1605 70.6234 73.5746 70.2441 72.8203C69.8691 72.0618 69.6816 71.1733 69.6816 70.1548C69.6816 69.1491 69.8691 68.2628 70.2441 67.4957C70.6234 66.7287 71.1518 66.13 71.8294 65.6996C72.5112 65.2692 73.3081 65.054 74.22 65.054C74.774 65.054 75.3109 65.1456 75.8308 65.3288C76.3507 65.5121 76.8173 65.7997 77.2306 66.1918C77.644 66.5838 77.97 67.093 78.2086 67.7195C78.4473 68.3416 78.5666 69.098 78.5666 69.9886V70.6662H70.7619V69.2344H76.6937C76.6937 68.7315 76.5914 68.2862 76.3869 67.8984C76.1824 67.5064 75.8947 67.1974 75.524 66.9716C75.1575 66.7457 74.7271 66.6328 74.2328 66.6328C73.6958 66.6328 73.2271 66.7649 72.8265 67.0291C72.4302 67.2891 72.1234 67.63 71.9061 68.0518C71.693 68.4695 71.5865 68.9233 71.5865 69.4134V70.532C71.5865 71.1882 71.7015 71.7464 71.9316 72.2067C72.166 72.6669 72.492 73.0185 72.9096 73.2614C73.3272 73.5 73.8152 73.6193 74.3734 73.6193C74.7356 73.6193 75.0659 73.5682 75.3642 73.4659C75.6625 73.3594 75.9203 73.2017 76.1376 72.9929C76.3549 72.7841 76.5211 72.5263 76.6362 72.2195L78.4451 72.5455C78.3002 73.0781 78.0403 73.5447 77.6653 73.9453C77.2946 74.3416 76.8279 74.6506 76.2654 74.8722C75.7072 75.0895 75.0701 75.1982 74.3542 75.1982ZM84.5728 75.1982C83.6225 75.1982 82.8043 74.983 82.1183 74.5526C81.4364 74.1179 80.9123 73.5192 80.5458 72.7564C80.1793 71.9936 79.9961 71.12 79.9961 70.1357C79.9961 69.1385 80.1836 68.2585 80.5586 67.4957C80.9336 66.7287 81.462 66.13 82.1438 65.6996C82.8256 65.2692 83.6289 65.054 84.5536 65.054C85.2994 65.054 85.9641 65.1925 86.5479 65.4695C87.1317 65.7422 87.6026 66.1257 87.9606 66.62C88.3228 67.1143 88.538 67.6918 88.6062 68.3523H86.7461C86.6438 67.892 86.4094 67.4957 86.043 67.1634C85.6808 66.831 85.195 66.6648 84.5856 66.6648C84.0529 66.6648 83.5863 66.8054 83.1857 67.0866C82.7894 67.3636 82.4805 67.7599 82.2589 68.2756C82.0373 68.7869 81.9265 69.392 81.9265 70.0909C81.9265 70.8068 82.0352 71.4247 82.2525 71.9446C82.4698 72.4645 82.7766 72.8672 83.1729 73.1527C83.5735 73.4382 84.0444 73.581 84.5856 73.581C84.9478 73.581 85.2759 73.5149 85.57 73.3828C85.8683 73.2464 86.1175 73.0526 86.3178 72.8011C86.5224 72.5497 86.6651 72.2472 86.7461 71.8935H88.6062C88.538 72.5284 88.3313 73.0952 87.9862 73.5938C87.641 74.0923 87.1786 74.4844 86.5991 74.7699C86.0238 75.0554 85.3484 75.1982 84.5728 75.1982ZM89.657 66.831V65.1818H97.9411V66.831H94.7386V75H92.8722V66.831H89.657ZM99.7125 75V65.1818H103.784C104.892 65.1818 105.77 65.4183 106.418 65.8913C107.066 66.3601 107.389 66.9972 107.389 67.8026C107.389 68.3778 107.206 68.8338 106.84 69.1705C106.473 69.5071 105.987 69.733 105.382 69.848C105.821 69.8991 106.224 70.0312 106.59 70.2443C106.957 70.4531 107.251 70.7344 107.472 71.0881C107.698 71.4418 107.811 71.8636 107.811 72.3537C107.811 72.8736 107.677 73.3338 107.409 73.7344C107.14 74.1307 106.75 74.4418 106.239 74.6676C105.732 74.8892 105.12 75 104.404 75H99.7125ZM101.509 73.402H104.404C104.877 73.402 105.248 73.2891 105.517 73.0632C105.785 72.8374 105.919 72.5305 105.919 72.1428C105.919 71.6868 105.785 71.3288 105.517 71.0689C105.248 70.8047 104.877 70.6726 104.404 70.6726H101.509V73.402ZM101.509 69.2727H103.803C104.161 69.2727 104.468 69.2216 104.724 69.1193C104.984 69.017 105.182 68.8722 105.318 68.6847C105.459 68.4929 105.529 68.267 105.529 68.0071C105.529 67.6278 105.374 67.3317 105.063 67.1186C104.752 66.9055 104.325 66.799 103.784 66.799H101.509V69.2727ZM113.794 75.1982C112.873 75.1982 112.07 74.9872 111.384 74.5653C110.698 74.1435 110.165 73.5533 109.786 72.7947C109.406 72.0362 109.217 71.1499 109.217 70.1357C109.217 69.1172 109.406 68.2266 109.786 67.4638C110.165 66.701 110.698 66.1087 111.384 65.6868C112.07 65.2649 112.873 65.054 113.794 65.054C114.714 65.054 115.517 65.2649 116.203 65.6868C116.889 66.1087 117.422 66.701 117.801 67.4638C118.181 68.2266 118.37 69.1172 118.37 70.1357C118.37 71.1499 118.181 72.0362 117.801 72.7947C117.422 73.5533 116.889 74.1435 116.203 74.5653C115.517 74.9872 114.714 75.1982 113.794 75.1982ZM113.8 73.5938C114.396 73.5938 114.891 73.4361 115.283 73.1207C115.675 72.8054 115.965 72.3857 116.152 71.8615C116.344 71.3374 116.44 70.7599 116.44 70.1293C116.44 69.5028 116.344 68.9276 116.152 68.4034C115.965 67.875 115.675 67.451 115.283 67.1314C114.891 66.8118 114.396 66.652 113.8 66.652C113.199 66.652 112.7 66.8118 112.304 67.1314C111.912 67.451 111.62 67.875 111.428 68.4034C111.241 68.9276 111.147 69.5028 111.147 70.1293C111.147 70.7599 111.241 71.3374 111.428 71.8615C111.62 72.3857 111.912 72.8054 112.304 73.1207C112.7 73.4361 113.199 73.5938 113.8 73.5938ZM124.218 66.831V65.1818H132.502V66.831H129.299V75H127.433V66.831H124.218ZM137.952 75.1982C137.031 75.1982 136.228 74.9872 135.542 74.5653C134.856 74.1435 134.323 73.5533 133.944 72.7947C133.565 72.0362 133.375 71.1499 133.375 70.1357C133.375 69.1172 133.565 68.2266 133.944 67.4638C134.323 66.701 134.856 66.1087 135.542 65.6868C136.228 65.2649 137.031 65.054 137.952 65.054C138.872 65.054 139.675 65.2649 140.362 65.6868C141.048 66.1087 141.58 66.701 141.96 67.4638C142.339 68.2266 142.528 69.1172 142.528 70.1357C142.528 71.1499 142.339 72.0362 141.96 72.7947C141.58 73.5533 141.048 74.1435 140.362 74.5653C139.675 74.9872 138.872 75.1982 137.952 75.1982ZM137.958 73.5938C138.555 73.5938 139.049 73.4361 139.441 73.1207C139.833 72.8054 140.123 72.3857 140.31 71.8615C140.502 71.3374 140.598 70.7599 140.598 70.1293C140.598 69.5028 140.502 68.9276 140.31 68.4034C140.123 67.875 139.833 67.451 139.441 67.1314C139.049 66.8118 138.555 66.652 137.958 66.652C137.357 66.652 136.859 66.8118 136.462 67.1314C136.07 67.451 135.778 67.875 135.587 68.4034C135.399 68.9276 135.305 69.5028 135.305 70.1293C135.305 70.7599 135.399 71.3374 135.587 71.8615C135.778 72.3857 136.07 72.8054 136.462 73.1207C136.859 73.4361 137.357 73.5938 137.958 73.5938ZM144.412 75V65.1818H148.483C149.591 65.1818 150.469 65.4183 151.117 65.8913C151.765 66.3601 152.089 66.9972 152.089 67.8026C152.089 68.3778 151.905 68.8338 151.539 69.1705C151.172 69.5071 150.687 69.733 150.081 69.848C150.52 69.8991 150.923 70.0312 151.29 70.2443C151.656 70.4531 151.95 70.7344 152.172 71.0881C152.398 71.4418 152.51 71.8636 152.51 72.3537C152.51 72.8736 152.376 73.3338 152.108 73.7344C151.839 74.1307 151.449 74.4418 150.938 74.6676C150.431 74.8892 149.819 75 149.104 75H144.412ZM146.208 73.402H149.104C149.577 73.402 149.947 73.2891 150.216 73.0632C150.484 72.8374 150.618 72.5305 150.618 72.1428C150.618 71.6868 150.484 71.3288 150.216 71.0689C149.947 70.8047 149.577 70.6726 149.104 70.6726H146.208V73.402ZM146.208 69.2727H148.503C148.861 69.2727 149.167 69.2216 149.423 69.1193C149.683 69.017 149.881 68.8722 150.018 68.6847C150.158 68.4929 150.229 68.267 150.229 68.0071C150.229 67.6278 150.073 67.3317 149.762 67.1186C149.451 66.9055 149.025 66.799 148.483 66.799H146.208V69.2727ZM157.214 75.2173C156.592 75.2173 156.03 75.1023 155.527 74.8722C155.024 74.6378 154.626 74.299 154.331 73.8558C154.042 73.4126 153.897 72.8693 153.897 72.2259C153.897 71.6719 154.003 71.2159 154.216 70.858C154.43 70.5 154.717 70.2166 155.079 70.0078C155.442 69.799 155.846 69.6413 156.294 69.5348C156.741 69.4283 157.197 69.3473 157.662 69.2919C158.25 69.2237 158.727 69.1683 159.094 69.1257C159.46 69.0788 159.726 69.0043 159.893 68.902C160.059 68.7997 160.142 68.6335 160.142 68.4034V68.3587C160.142 67.8004 159.984 67.3679 159.669 67.0611C159.358 66.7543 158.893 66.6009 158.275 66.6009C157.632 66.6009 157.125 66.7436 156.754 67.0291C156.388 67.3104 156.134 67.6236 155.993 67.9688L154.197 67.5597C154.41 66.9631 154.721 66.4815 155.131 66.1151C155.544 65.7443 156.019 65.4759 156.556 65.3097C157.093 65.1392 157.657 65.054 158.25 65.054C158.642 65.054 159.057 65.1009 159.496 65.1946C159.939 65.2841 160.353 65.4503 160.736 65.6932C161.124 65.9361 161.442 66.2834 161.689 66.7351C161.936 67.1825 162.059 67.7642 162.059 68.4801V75H160.193V73.6577H160.116C159.993 73.9048 159.807 74.1477 159.56 74.3864C159.313 74.625 158.996 74.8232 158.608 74.9808C158.22 75.1385 157.756 75.2173 157.214 75.2173ZM157.63 73.6832C158.158 73.6832 158.61 73.5788 158.985 73.37C159.364 73.1612 159.652 72.8885 159.848 72.5518C160.048 72.2109 160.148 71.8466 160.148 71.4588V70.1932C160.08 70.2614 159.948 70.3253 159.752 70.3849C159.56 70.4403 159.341 70.4893 159.094 70.532C158.846 70.5703 158.606 70.6065 158.371 70.6406C158.137 70.6705 157.941 70.696 157.783 70.7173C157.412 70.7642 157.074 70.843 156.767 70.9538C156.464 71.0646 156.221 71.2244 156.038 71.4332C155.859 71.6378 155.77 71.9105 155.77 72.2514C155.77 72.7244 155.944 73.0824 156.294 73.3253C156.643 73.5639 157.089 73.6832 157.63 73.6832ZM164.355 78.6818V65.1818H166.222V66.7734H166.381C166.492 66.5689 166.652 66.3324 166.861 66.0639C167.07 65.7955 167.359 65.5611 167.73 65.3608C168.101 65.1562 168.591 65.054 169.2 65.054C169.993 65.054 170.7 65.2543 171.322 65.6548C171.945 66.0554 172.433 66.6328 172.786 67.3871C173.144 68.1413 173.323 69.049 173.323 70.1101C173.323 71.1712 173.146 72.081 172.793 72.8395C172.439 73.5937 171.953 74.1754 171.335 74.5845C170.717 74.9893 170.012 75.1918 169.219 75.1918C168.623 75.1918 168.135 75.0916 167.756 74.8913C167.381 74.6911 167.087 74.4567 166.874 74.1882C166.661 73.9197 166.496 73.6811 166.381 73.4723H166.266V78.6818H164.355ZM166.228 70.0909C166.228 70.7812 166.328 71.3864 166.528 71.9062C166.729 72.4261 167.018 72.8331 167.398 73.1271C167.777 73.4169 168.241 73.5618 168.791 73.5618C169.362 73.5618 169.839 73.4105 170.223 73.108C170.607 72.8011 170.896 72.3857 171.092 71.8615C171.293 71.3374 171.393 70.7472 171.393 70.0909C171.393 69.4432 171.295 68.8615 171.099 68.3459C170.907 67.8303 170.617 67.4233 170.229 67.125C169.846 66.8267 169.366 66.6776 168.791 66.6776C168.237 66.6776 167.768 66.8203 167.385 67.1058C167.006 67.3913 166.718 67.7898 166.522 68.3011C166.326 68.8125 166.228 69.4091 166.228 70.0909ZM178.072 75.2173C177.45 75.2173 176.887 75.1023 176.384 74.8722C175.881 74.6378 175.483 74.299 175.189 73.8558C174.899 73.4126 174.754 72.8693 174.754 72.2259C174.754 71.6719 174.861 71.2159 175.074 70.858C175.287 70.5 175.575 70.2166 175.937 70.0078C176.299 69.799 176.704 69.6413 177.151 69.5348C177.599 69.4283 178.055 69.3473 178.519 69.2919C179.107 69.2237 179.585 69.1683 179.951 69.1257C180.317 69.0788 180.584 69.0043 180.75 68.902C180.916 68.7997 180.999 68.6335 180.999 68.4034V68.3587C180.999 67.8004 180.842 67.3679 180.526 67.0611C180.215 66.7543 179.751 66.6009 179.133 66.6009C178.489 66.6009 177.982 66.7436 177.612 67.0291C177.245 67.3104 176.991 67.6236 176.851 67.9688L175.055 67.5597C175.268 66.9631 175.579 66.4815 175.988 66.1151C176.401 65.7443 176.876 65.4759 177.413 65.3097C177.95 65.1392 178.515 65.054 179.107 65.054C179.499 65.054 179.915 65.1009 180.354 65.1946C180.797 65.2841 181.21 65.4503 181.594 65.6932C181.982 65.9361 182.299 66.2834 182.546 66.7351C182.793 67.1825 182.917 67.7642 182.917 68.4801V75H181.05V73.6577H180.974C180.85 73.9048 180.665 74.1477 180.418 74.3864C180.17 74.625 179.853 74.8232 179.465 74.9808C179.077 75.1385 178.613 75.2173 178.072 75.2173ZM178.487 73.6832C179.016 73.6832 179.467 73.5788 179.842 73.37C180.222 73.1612 180.509 72.8885 180.705 72.5518C180.906 72.2109 181.006 71.8466 181.006 71.4588V70.1932C180.938 70.2614 180.805 70.3253 180.609 70.3849C180.418 70.4403 180.198 70.4893 179.951 70.532C179.704 70.5703 179.463 70.6065 179.229 70.6406C178.994 70.6705 178.798 70.696 178.641 70.7173C178.27 70.7642 177.931 70.843 177.624 70.9538C177.322 71.0646 177.079 71.2244 176.896 71.4332C176.717 71.6378 176.627 71.9105 176.627 72.2514C176.627 72.7244 176.802 73.0824 177.151 73.3253C177.501 73.5639 177.946 73.6832 178.487 73.6832Z" fill="#0F1721"/>
<rect x="209" y="48" width="154" height="40" rx="20" fill="#F5F5F5"/>
<path d="M237.311 66.1662H235.317C235.24 65.7401 235.097 65.3651 234.888 65.0412C234.68 64.7173 234.424 64.4425 234.121 64.2166C233.819 63.9908 233.48 63.8203 233.105 63.7053C232.734 63.5902 232.34 63.5327 231.923 63.5327C231.168 63.5327 230.493 63.7223 229.896 64.1016C229.304 64.4808 228.835 65.0369 228.49 65.7699C228.149 66.5028 227.979 67.3977 227.979 68.4545C227.979 69.5199 228.149 70.419 228.49 71.152C228.835 71.8849 229.306 72.4389 229.903 72.8139C230.499 73.1889 231.17 73.3764 231.916 73.3764C232.33 73.3764 232.722 73.321 233.092 73.2102C233.467 73.0952 233.806 72.9268 234.109 72.7053C234.411 72.4837 234.667 72.2131 234.876 71.8935C235.089 71.5696 235.236 71.1989 235.317 70.7812L237.311 70.7876C237.205 71.4311 236.998 72.0234 236.691 72.5646C236.388 73.1016 235.999 73.5661 235.521 73.9581C235.048 74.3459 234.507 74.6463 233.898 74.8594C233.288 75.0724 232.624 75.179 231.903 75.179C230.77 75.179 229.76 74.9105 228.874 74.3736C227.987 73.8324 227.288 73.0589 226.777 72.0533C226.27 71.0476 226.016 69.848 226.016 68.4545C226.016 67.0568 226.272 65.8572 226.783 64.8558C227.295 63.8501 227.994 63.0788 228.88 62.5419C229.766 62.0007 230.774 61.7301 231.903 61.7301C232.598 61.7301 233.246 61.8303 233.847 62.0305C234.452 62.2266 234.995 62.5163 235.477 62.8999C235.958 63.2791 236.357 63.7436 236.672 64.2933C236.987 64.8388 237.2 65.4631 237.311 66.1662ZM240.514 78.6818C240.229 78.6818 239.969 78.6584 239.735 78.6115C239.5 78.5689 239.325 78.522 239.21 78.4709L239.671 76.9048C240.02 76.9986 240.331 77.0391 240.604 77.0263C240.877 77.0135 241.117 76.9112 241.326 76.7195C241.539 76.5277 241.727 76.2145 241.889 75.7798L242.125 75.1278L238.533 65.1818H240.578L243.065 72.8011H243.167L245.654 65.1818H247.705L243.659 76.3104C243.472 76.8217 243.233 77.2543 242.943 77.608C242.654 77.9659 242.308 78.2344 241.908 78.4134C241.507 78.5923 241.043 78.6818 240.514 78.6818ZM254.762 72.6349L257.932 65.1818H259.581L255.471 75H254.052L250.025 65.1818H251.655L254.762 72.6349ZM251.124 65.1818V75H249.252V65.1818H251.124ZM258.45 75V65.1818H260.31V75H258.45ZM268.117 72.6349L271.287 65.1818H272.937L268.827 75H267.407L263.381 65.1818H265.01L268.117 72.6349ZM264.48 65.1818V75H262.607V65.1818H264.48ZM271.805 75V65.1818H273.665V75H271.805ZM278.82 75.2173C278.198 75.2173 277.635 75.1023 277.132 74.8722C276.629 74.6378 276.231 74.299 275.937 73.8558C275.647 73.4126 275.502 72.8693 275.502 72.2259C275.502 71.6719 275.609 71.2159 275.822 70.858C276.035 70.5 276.323 70.2166 276.685 70.0078C277.047 69.799 277.452 69.6413 277.899 69.5348C278.347 69.4283 278.803 69.3473 279.267 69.2919C279.855 69.2237 280.333 69.1683 280.699 69.1257C281.066 69.0788 281.332 69.0043 281.498 68.902C281.664 68.7997 281.747 68.6335 281.747 68.4034V68.3587C281.747 67.8004 281.59 67.3679 281.274 67.0611C280.963 66.7543 280.499 66.6009 279.881 66.6009C279.237 66.6009 278.73 66.7436 278.36 67.0291C277.993 67.3104 277.74 67.6236 277.599 67.9688L275.803 67.5597C276.016 66.9631 276.327 66.4815 276.736 66.1151C277.149 65.7443 277.624 65.4759 278.161 65.3097C278.698 65.1392 279.263 65.054 279.855 65.054C280.247 65.054 280.663 65.1009 281.102 65.1946C281.545 65.2841 281.958 65.4503 282.342 65.6932C282.73 65.9361 283.047 66.2834 283.294 66.7351C283.541 67.1825 283.665 67.7642 283.665 68.4801V75H281.798V73.6577H281.722C281.598 73.9048 281.413 74.1477 281.166 74.3864C280.919 74.625 280.601 74.8232 280.213 74.9808C279.825 75.1385 279.361 75.2173 278.82 75.2173ZM279.235 73.6832C279.764 73.6832 280.215 73.5788 280.59 73.37C280.97 73.1612 281.257 72.8885 281.453 72.5518C281.654 72.2109 281.754 71.8466 281.754 71.4588V70.1932C281.686 70.2614 281.553 70.3253 281.357 70.3849C281.166 70.4403 280.946 70.4893 280.699 70.532C280.452 70.5703 280.211 70.6065 279.977 70.6406C279.742 70.6705 279.546 70.696 279.389 70.7173C279.018 70.7642 278.679 70.843 278.372 70.9538C278.07 71.0646 277.827 71.2244 277.644 71.4332C277.465 71.6378 277.375 71.9105 277.375 72.2514C277.375 72.7244 277.55 73.0824 277.899 73.3253C278.249 73.5639 278.694 73.6832 279.235 73.6832ZM289.893 72.4048H291.849C291.874 72.8054 292.055 73.1143 292.392 73.3317C292.733 73.549 293.174 73.6577 293.715 73.6577C294.265 73.6577 294.733 73.5405 295.121 73.3061C295.509 73.0675 295.703 72.6989 295.703 72.2003C295.703 71.902 295.628 71.642 295.479 71.4205C295.334 71.1946 295.128 71.0199 294.859 70.8963C294.595 70.7727 294.282 70.7109 293.92 70.7109H292.322V69.2088H293.92C294.461 69.2088 294.866 69.0852 295.134 68.8381C295.403 68.5909 295.537 68.282 295.537 67.9112C295.537 67.5107 295.392 67.1889 295.102 66.946C294.817 66.6989 294.418 66.5753 293.907 66.5753C293.387 66.5753 292.954 66.6925 292.609 66.9268C292.264 67.157 292.083 67.4553 292.066 67.8217H290.135C290.148 67.272 290.314 66.7905 290.634 66.3771C290.958 65.9595 291.393 65.6357 291.938 65.4055C292.488 65.1712 293.112 65.054 293.811 65.054C294.54 65.054 295.17 65.1712 295.703 65.4055C296.236 65.6399 296.647 65.9638 296.937 66.3771C297.231 66.7905 297.378 67.2656 297.378 67.8026C297.378 68.3437 297.216 68.7869 296.892 69.1321C296.572 69.473 296.155 69.718 295.639 69.8672V69.9695C296.018 69.995 296.355 70.1101 296.649 70.3146C296.943 70.5192 297.173 70.7898 297.339 71.1264C297.506 71.4631 297.589 71.8445 297.589 72.2706C297.589 72.8714 297.422 73.3913 297.09 73.8303C296.762 74.2692 296.306 74.608 295.722 74.8466C295.143 75.081 294.48 75.1982 293.734 75.1982C293.01 75.1982 292.36 75.0852 291.785 74.8594C291.214 74.6293 290.76 74.3054 290.423 73.8878C290.091 73.4702 289.914 72.9759 289.893 72.4048ZM302.169 75.2173C301.547 75.2173 300.985 75.1023 300.482 74.8722C299.979 74.6378 299.581 74.299 299.287 73.8558C298.997 73.4126 298.852 72.8693 298.852 72.2259C298.852 71.6719 298.958 71.2159 299.172 70.858C299.385 70.5 299.672 70.2166 300.034 70.0078C300.397 69.799 300.801 69.6413 301.249 69.5348C301.696 69.4283 302.152 69.3473 302.617 69.2919C303.205 69.2237 303.682 69.1683 304.049 69.1257C304.415 69.0788 304.681 69.0043 304.848 68.902C305.014 68.7997 305.097 68.6335 305.097 68.4034V68.3587C305.097 67.8004 304.939 67.3679 304.624 67.0611C304.313 66.7543 303.848 66.6009 303.23 66.6009C302.587 66.6009 302.08 66.7436 301.709 67.0291C301.343 67.3104 301.089 67.6236 300.949 67.9688L299.152 67.5597C299.365 66.9631 299.676 66.4815 300.086 66.1151C300.499 65.7443 300.974 65.4759 301.511 65.3097C302.048 65.1392 302.613 65.054 303.205 65.054C303.597 65.054 304.012 65.1009 304.451 65.1946C304.895 65.2841 305.308 65.4503 305.691 65.6932C306.079 65.9361 306.397 66.2834 306.644 66.7351C306.891 67.1825 307.015 67.7642 307.015 68.4801V75H305.148V73.6577H305.071C304.948 73.9048 304.762 74.1477 304.515 74.3864C304.268 74.625 303.951 74.8232 303.563 74.9808C303.175 75.1385 302.711 75.2173 302.169 75.2173ZM302.585 73.6832C303.113 73.6832 303.565 73.5788 303.94 73.37C304.319 73.1612 304.607 72.8885 304.803 72.5518C305.003 72.2109 305.103 71.8466 305.103 71.4588V70.1932C305.035 70.2614 304.903 70.3253 304.707 70.3849C304.515 70.4403 304.296 70.4893 304.049 70.532C303.801 70.5703 303.561 70.6065 303.326 70.6406C303.092 70.6705 302.896 70.696 302.738 70.7173C302.368 70.7642 302.029 70.843 301.722 70.9538C301.419 71.0646 301.176 71.2244 300.993 71.4332C300.814 71.6378 300.725 71.9105 300.725 72.2514C300.725 72.7244 300.9 73.0824 301.249 73.3253C301.598 73.5639 302.044 73.6832 302.585 73.6832ZM309.31 75V65.1818H311.221V69.2983H312.142L315.383 65.1818H317.748L313.944 69.9567L317.792 75H315.421L312.461 71.0753H311.221V75H309.31ZM321.884 75.2173C321.262 75.2173 320.7 75.1023 320.197 74.8722C319.694 74.6378 319.295 74.299 319.001 73.8558C318.712 73.4126 318.567 72.8693 318.567 72.2259C318.567 71.6719 318.673 71.2159 318.886 70.858C319.099 70.5 319.387 70.2166 319.749 70.0078C320.112 69.799 320.516 69.6413 320.964 69.5348C321.411 69.4283 321.867 69.3473 322.332 69.2919C322.92 69.2237 323.397 69.1683 323.763 69.1257C324.13 69.0788 324.396 69.0043 324.562 68.902C324.729 68.7997 324.812 68.6335 324.812 68.4034V68.3587C324.812 67.8004 324.654 67.3679 324.339 67.0611C324.028 66.7543 323.563 66.6009 322.945 66.6009C322.302 66.6009 321.795 66.7436 321.424 67.0291C321.058 67.3104 320.804 67.6236 320.663 67.9688L318.867 67.5597C319.08 66.9631 319.391 66.4815 319.8 66.1151C320.214 65.7443 320.689 65.4759 321.226 65.3097C321.763 65.1392 322.327 65.054 322.92 65.054C323.312 65.054 323.727 65.1009 324.166 65.1946C324.609 65.2841 325.023 65.4503 325.406 65.6932C325.794 65.9361 326.112 66.2834 326.359 66.7351C326.606 67.1825 326.729 67.7642 326.729 68.4801V75H324.863V73.6577H324.786C324.663 73.9048 324.477 74.1477 324.23 74.3864C323.983 74.625 323.665 74.8232 323.278 74.9808C322.89 75.1385 322.425 75.2173 321.884 75.2173ZM322.3 73.6832C322.828 73.6832 323.28 73.5788 323.655 73.37C324.034 73.1612 324.322 72.8885 324.518 72.5518C324.718 72.2109 324.818 71.8466 324.818 71.4588V70.1932C324.75 70.2614 324.618 70.3253 324.422 70.3849C324.23 70.4403 324.011 70.4893 323.763 70.532C323.516 70.5703 323.276 70.6065 323.041 70.6406C322.807 70.6705 322.611 70.696 322.453 70.7173C322.082 70.7642 321.744 70.843 321.437 70.9538C321.134 71.0646 320.891 71.2244 320.708 71.4332C320.529 71.6378 320.44 71.9105 320.44 72.2514C320.44 72.7244 320.614 73.0824 320.964 73.3253C321.313 73.5639 321.759 73.6832 322.3 73.6832ZM328.443 72.4048H330.399C330.425 72.8054 330.606 73.1143 330.943 73.3317C331.284 73.549 331.725 73.6577 332.266 73.6577C332.816 73.6577 333.284 73.5405 333.672 73.3061C334.06 73.0675 334.254 72.6989 334.254 72.2003C334.254 71.902 334.179 71.642 334.03 71.4205C333.885 71.1946 333.678 71.0199 333.41 70.8963C333.146 70.7727 332.833 70.7109 332.47 70.7109H330.872V69.2088H332.47C333.012 69.2088 333.416 69.0852 333.685 68.8381C333.953 68.5909 334.088 68.282 334.088 67.9112C334.088 67.5107 333.943 67.1889 333.653 66.946C333.367 66.6989 332.969 66.5753 332.458 66.5753C331.938 66.5753 331.505 66.6925 331.16 66.9268C330.815 67.157 330.634 67.4553 330.617 67.8217H328.686C328.699 67.272 328.865 66.7905 329.185 66.3771C329.509 65.9595 329.943 65.6357 330.489 65.4055C331.039 65.1712 331.663 65.054 332.362 65.054C333.09 65.054 333.721 65.1712 334.254 65.4055C334.786 65.6399 335.198 65.9638 335.487 66.3771C335.781 66.7905 335.928 67.2656 335.928 67.8026C335.928 68.3437 335.767 68.7869 335.443 69.1321C335.123 69.473 334.705 69.718 334.19 69.8672V69.9695C334.569 69.995 334.906 70.1101 335.2 70.3146C335.494 70.5192 335.724 70.7898 335.89 71.1264C336.056 71.4631 336.139 71.8445 336.139 72.2706C336.139 72.8714 335.973 73.3913 335.641 73.8303C335.313 74.2692 334.857 74.608 334.273 74.8466C333.693 75.081 333.031 75.1982 332.285 75.1982C331.561 75.1982 330.911 75.0852 330.335 74.8594C329.764 74.6293 329.311 74.3054 328.974 73.8878C328.642 73.4702 328.465 72.9759 328.443 72.4048ZM340.72 75.2173C340.098 75.2173 339.536 75.1023 339.033 74.8722C338.53 74.6378 338.131 74.299 337.837 73.8558C337.548 73.4126 337.403 72.8693 337.403 72.2259C337.403 71.6719 337.509 71.2159 337.722 70.858C337.935 70.5 338.223 70.2166 338.585 70.0078C338.947 69.799 339.352 69.6413 339.8 69.5348C340.247 69.4283 340.703 69.3473 341.168 69.2919C341.756 69.2237 342.233 69.1683 342.599 69.1257C342.966 69.0788 343.232 69.0043 343.398 68.902C343.565 68.7997 343.648 68.6335 343.648 68.4034V68.3587C343.648 67.8004 343.49 67.3679 343.175 67.0611C342.864 66.7543 342.399 66.6009 341.781 66.6009C341.138 66.6009 340.631 66.7436 340.26 67.0291C339.893 67.3104 339.64 67.6236 339.499 67.9688L337.703 67.5597C337.916 66.9631 338.227 66.4815 338.636 66.1151C339.05 65.7443 339.525 65.4759 340.062 65.3097C340.599 65.1392 341.163 65.054 341.756 65.054C342.148 65.054 342.563 65.1009 343.002 65.1946C343.445 65.2841 343.859 65.4503 344.242 65.6932C344.63 65.9361 344.947 66.2834 345.195 66.7351C345.442 67.1825 345.565 67.7642 345.565 68.4801V75H343.699V73.6577H343.622C343.499 73.9048 343.313 74.1477 343.066 74.3864C342.819 74.625 342.501 74.8232 342.114 74.9808C341.726 75.1385 341.261 75.2173 340.72 75.2173ZM341.136 73.6832C341.664 73.6832 342.116 73.5788 342.491 73.37C342.87 73.1612 343.158 72.8885 343.354 72.5518C343.554 72.2109 343.654 71.8466 343.654 71.4588V70.1932C343.586 70.2614 343.454 70.3253 343.258 70.3849C343.066 70.4403 342.847 70.4893 342.599 70.532C342.352 70.5703 342.112 70.6065 341.877 70.6406C341.643 70.6705 341.447 70.696 341.289 70.7173C340.918 70.7642 340.58 70.843 340.273 70.9538C339.97 71.0646 339.727 71.2244 339.544 71.4332C339.365 71.6378 339.276 71.9105 339.276 72.2514C339.276 72.7244 339.45 73.0824 339.8 73.3253C340.149 73.5639 340.594 73.6832 341.136 73.6832Z" fill="#0F1721"/>
<rect x="371" y="48" width="226" height="40" rx="20" fill="#F5F5F5"/>
<path d="M396.205 75L391.807 69.1321H390.413V75H388.438V61.9091H390.413V67.4382H391.059L396.006 61.9091H398.416L393.181 67.7706L398.614 75H396.205ZM403.456 75.1982C402.535 75.1982 401.732 74.9872 401.046 74.5653C400.36 74.1435 399.827 73.5533 399.448 72.7947C399.069 72.0362 398.879 71.1499 398.879 70.1357C398.879 69.1172 399.069 68.2266 399.448 67.4638C399.827 66.701 400.36 66.1087 401.046 65.6868C401.732 65.2649 402.535 65.054 403.456 65.054C404.376 65.054 405.179 65.2649 405.865 65.6868C406.551 66.1087 407.084 66.701 407.463 67.4638C407.843 68.2266 408.032 69.1172 408.032 70.1357C408.032 71.1499 407.843 72.0362 407.463 72.7947C407.084 73.5533 406.551 74.1435 405.865 74.5653C405.179 74.9872 404.376 75.1982 403.456 75.1982ZM403.462 73.5938C404.059 73.5938 404.553 73.4361 404.945 73.1207C405.337 72.8054 405.627 72.3857 405.814 71.8615C406.006 71.3374 406.102 70.7599 406.102 70.1293C406.102 69.5028 406.006 68.9276 405.814 68.4034C405.627 67.875 405.337 67.451 404.945 67.1314C404.553 66.8118 404.059 66.652 403.462 66.652C402.861 66.652 402.363 66.8118 401.966 67.1314C401.574 67.451 401.282 67.875 401.091 68.4034C400.903 68.9276 400.809 69.5028 400.809 70.1293C400.809 70.7599 400.903 71.3374 401.091 71.8615C401.282 72.3857 401.574 72.8054 401.966 73.1207C402.363 73.4361 402.861 73.5938 403.462 73.5938ZM415.426 72.6349L418.596 65.1818H420.245L416.135 75H414.716L410.689 65.1818H412.319L415.426 72.6349ZM411.789 65.1818V75H409.916V65.1818H411.789ZM419.114 75V65.1818H420.974V75H419.114ZM428.781 72.6349L431.952 65.1818H433.601L429.491 75H428.072L424.045 65.1818H425.675L428.781 72.6349ZM425.144 65.1818V75H423.271V65.1818H425.144ZM432.469 75V65.1818H434.329V75H432.469ZM440.858 75.1982C439.891 75.1982 439.058 74.9915 438.359 74.5781C437.664 74.1605 437.127 73.5746 436.748 72.8203C436.373 72.0618 436.186 71.1733 436.186 70.1548C436.186 69.1491 436.373 68.2628 436.748 67.4957C437.127 66.7287 437.656 66.13 438.333 65.6996C439.015 65.2692 439.812 65.054 440.724 65.054C441.278 65.054 441.815 65.1456 442.335 65.3288C442.855 65.5121 443.321 65.7997 443.735 66.1918C444.148 66.5838 444.474 67.093 444.713 67.7195C444.951 68.3416 445.07 69.098 445.07 69.9886V70.6662H437.266V69.2344H443.198C443.198 68.7315 443.095 68.2862 442.891 67.8984C442.686 67.5064 442.399 67.1974 442.028 66.9716C441.661 66.7457 441.231 66.6328 440.737 66.6328C440.2 66.6328 439.731 66.7649 439.33 67.0291C438.934 67.2891 438.627 67.63 438.41 68.0518C438.197 68.4695 438.09 68.9233 438.09 69.4134V70.532C438.09 71.1882 438.205 71.7464 438.436 72.2067C438.67 72.6669 438.996 73.0185 439.414 73.2614C439.831 73.5 440.319 73.6193 440.877 73.6193C441.24 73.6193 441.57 73.5682 441.868 73.4659C442.166 73.3594 442.424 73.2017 442.642 72.9929C442.859 72.7841 443.025 72.5263 443.14 72.2195L444.949 72.5455C444.804 73.0781 444.544 73.5447 444.169 73.9453C443.798 74.3416 443.332 74.6506 442.769 74.8722C442.211 75.0895 441.574 75.1982 440.858 75.1982ZM453.595 69.2663V70.9219H448.277V69.2663H453.595ZM448.814 65.1818V75H446.941V65.1818H448.814ZM454.931 65.1818V75H453.065V65.1818H454.931ZM456.02 66.831V65.1818H464.304V66.831H461.102V75H459.235V66.831H456.02ZM468.476 75.2173C467.854 75.2173 467.291 75.1023 466.789 74.8722C466.286 74.6378 465.887 74.299 465.593 73.8558C465.303 73.4126 465.159 72.8693 465.159 72.2259C465.159 71.6719 465.265 71.2159 465.478 70.858C465.691 70.5 465.979 70.2166 466.341 70.0078C466.703 69.799 467.108 69.6413 467.556 69.5348C468.003 69.4283 468.459 69.3473 468.923 69.2919C469.512 69.2237 469.989 69.1683 470.355 69.1257C470.722 69.0788 470.988 69.0043 471.154 68.902C471.32 68.7997 471.404 68.6335 471.404 68.4034V68.3587C471.404 67.8004 471.246 67.3679 470.931 67.0611C470.619 66.7543 470.155 66.6009 469.537 66.6009C468.894 66.6009 468.387 66.7436 468.016 67.0291C467.649 67.3104 467.396 67.6236 467.255 67.9688L465.459 67.5597C465.672 66.9631 465.983 66.4815 466.392 66.1151C466.806 65.7443 467.281 65.4759 467.818 65.3097C468.355 65.1392 468.919 65.054 469.512 65.054C469.904 65.054 470.319 65.1009 470.758 65.1946C471.201 65.2841 471.615 65.4503 471.998 65.6932C472.386 65.9361 472.703 66.2834 472.95 66.7351C473.198 67.1825 473.321 67.7642 473.321 68.4801V75H471.455V73.6577H471.378C471.254 73.9048 471.069 74.1477 470.822 74.3864C470.575 74.625 470.257 74.8232 469.869 74.9808C469.482 75.1385 469.017 75.2173 468.476 75.2173ZM468.892 73.6832C469.42 73.6832 469.872 73.5788 470.247 73.37C470.626 73.1612 470.914 72.8885 471.11 72.5518C471.31 72.2109 471.41 71.8466 471.41 71.4588V70.1932C471.342 70.2614 471.21 70.3253 471.014 70.3849C470.822 70.4403 470.602 70.4893 470.355 70.532C470.108 70.5703 469.867 70.6065 469.633 70.6406C469.399 70.6705 469.203 70.696 469.045 70.7173C468.674 70.7642 468.335 70.843 468.029 70.9538C467.726 71.0646 467.483 71.2244 467.3 71.4332C467.121 71.6378 467.031 71.9105 467.031 72.2514C467.031 72.7244 467.206 73.0824 467.556 73.3253C467.905 73.5639 468.35 73.6832 468.892 73.6832ZM475.617 78.6818V65.1818H477.483V66.7734H477.643C477.754 66.5689 477.914 66.3324 478.123 66.0639C478.331 65.7955 478.621 65.5611 478.992 65.3608C479.363 65.1562 479.853 65.054 480.462 65.054C481.255 65.054 481.962 65.2543 482.584 65.6548C483.206 66.0554 483.694 66.6328 484.048 67.3871C484.406 68.1413 484.585 69.049 484.585 70.1101C484.585 71.1712 484.408 72.081 484.054 72.8395C483.701 73.5937 483.215 74.1754 482.597 74.5845C481.979 74.9893 481.274 75.1918 480.481 75.1918C479.885 75.1918 479.397 75.0916 479.017 74.8913C478.642 74.6911 478.348 74.4567 478.135 74.1882C477.922 73.9197 477.758 73.6811 477.643 73.4723H477.528V78.6818H475.617ZM477.49 70.0909C477.49 70.7812 477.59 71.3864 477.79 71.9062C477.99 72.4261 478.28 72.8331 478.659 73.1271C479.039 73.4169 479.503 73.5618 480.053 73.5618C480.624 73.5618 481.101 73.4105 481.485 73.108C481.868 72.8011 482.158 72.3857 482.354 71.8615C482.554 71.3374 482.654 70.7472 482.654 70.0909C482.654 69.4432 482.556 68.8615 482.36 68.3459C482.169 67.8303 481.879 67.4233 481.491 67.125C481.108 66.8267 480.628 66.6776 480.053 66.6776C479.499 66.6776 479.03 66.8203 478.647 67.1058C478.267 67.3913 477.98 67.7898 477.784 68.3011C477.588 68.8125 477.49 69.4091 477.49 70.0909ZM488.349 72.3217L492.676 65.1818H494.735V75H492.862V67.8537L488.554 75H486.476V65.1818H488.349V72.3217ZM498.927 72.3217L503.255 65.1818H505.313V75H503.44V67.8537L499.132 75H497.054V65.1818H498.927V72.3217ZM512.146 75V65.1818H514.057V69.2983H514.978L518.219 65.1818H520.584L516.78 69.9567L520.628 75H518.257L515.297 71.0753H514.057V75H512.146ZM521.089 75L521.083 73.3445H521.435C521.707 73.3445 521.935 73.2869 522.119 73.1719C522.306 73.0526 522.46 72.8523 522.579 72.571C522.698 72.2898 522.79 71.902 522.854 71.4077C522.918 70.9091 522.964 70.2827 522.994 69.5284L523.167 65.1818H530.019V75H528.146V66.831H524.938L524.784 70.1676C524.746 70.9773 524.663 71.6847 524.535 72.2898C524.411 72.8949 524.23 73.3999 523.991 73.8047C523.753 74.2053 523.446 74.5057 523.071 74.706C522.696 74.902 522.24 75 521.703 75H521.089ZM534.191 72.3217L538.518 65.1818H540.577V75H538.704V67.8537L534.395 75H532.318V65.1818H534.191V72.3217ZM547.128 75.1982C546.16 75.1982 545.327 74.9915 544.628 74.5781C543.934 74.1605 543.397 73.5746 543.018 72.8203C542.643 72.0618 542.455 71.1733 542.455 70.1548C542.455 69.1491 542.643 68.2628 543.018 67.4957C543.397 66.7287 543.925 66.13 544.603 65.6996C545.285 65.2692 546.081 65.054 546.993 65.054C547.547 65.054 548.084 65.1456 548.604 65.3288C549.124 65.5121 549.591 65.7997 550.004 66.1918C550.417 66.5838 550.743 67.093 550.982 67.7195C551.221 68.3416 551.34 69.098 551.34 69.9886V70.6662H543.535V69.2344H549.467C549.467 68.7315 549.365 68.2862 549.16 67.8984C548.956 67.5064 548.668 67.1974 548.297 66.9716C547.931 66.7457 547.501 66.6328 547.006 66.6328C546.469 66.6328 546.001 66.7649 545.6 67.0291C545.204 67.2891 544.897 67.63 544.68 68.0518C544.466 68.4695 544.36 68.9233 544.36 69.4134V70.532C544.36 71.1882 544.475 71.7464 544.705 72.2067C544.939 72.6669 545.265 73.0185 545.683 73.2614C546.101 73.5 546.589 73.6193 547.147 73.6193C547.509 73.6193 547.839 73.5682 548.138 73.4659C548.436 73.3594 548.694 73.2017 548.911 72.9929C549.128 72.7841 549.295 72.5263 549.41 72.2195L551.219 72.5455C551.074 73.0781 550.814 73.5447 550.439 73.9453C550.068 74.3416 549.601 74.6506 549.039 74.8722C548.481 75.0895 547.844 75.1982 547.128 75.1982ZM559.865 69.2663V70.9219H554.547V69.2663H559.865ZM555.083 65.1818V75H553.211V65.1818H555.083ZM561.201 65.1818V75H559.334V65.1818H561.201ZM562.29 66.831V65.1818H570.574V66.831H567.371V75H565.505V66.831H562.29ZM574.746 75.2173C574.123 75.2173 573.561 75.1023 573.058 74.8722C572.555 74.6378 572.157 74.299 571.863 73.8558C571.573 73.4126 571.428 72.8693 571.428 72.2259C571.428 71.6719 571.535 71.2159 571.748 70.858C571.961 70.5 572.248 70.2166 572.611 70.0078C572.973 69.799 573.378 69.6413 573.825 69.5348C574.273 69.4283 574.729 69.3473 575.193 69.2919C575.781 69.2237 576.258 69.1683 576.625 69.1257C576.991 69.0788 577.258 69.0043 577.424 68.902C577.59 68.7997 577.673 68.6335 577.673 68.4034V68.3587C577.673 67.8004 577.515 67.3679 577.2 67.0611C576.889 66.7543 576.425 66.6009 575.807 66.6009C575.163 66.6009 574.656 66.7436 574.285 67.0291C573.919 67.3104 573.665 67.6236 573.525 67.9688L571.729 67.5597C571.942 66.9631 572.253 66.4815 572.662 66.1151C573.075 65.7443 573.55 65.4759 574.087 65.3097C574.624 65.1392 575.189 65.054 575.781 65.054C576.173 65.054 576.589 65.1009 577.028 65.1946C577.471 65.2841 577.884 65.4503 578.268 65.6932C578.655 65.9361 578.973 66.2834 579.22 66.7351C579.467 67.1825 579.591 67.7642 579.591 68.4801V75H577.724V73.6577H577.648C577.524 73.9048 577.339 74.1477 577.091 74.3864C576.844 74.625 576.527 74.8232 576.139 74.9808C575.751 75.1385 575.287 75.2173 574.746 75.2173ZM575.161 73.6832C575.689 73.6832 576.141 73.5788 576.516 73.37C576.895 73.1612 577.183 72.8885 577.379 72.5518C577.579 72.2109 577.68 71.8466 577.68 71.4588V70.1932C577.611 70.2614 577.479 70.3253 577.283 70.3849C577.091 70.4403 576.872 70.4893 576.625 70.532C576.378 70.5703 576.137 70.6065 575.903 70.6406C575.668 70.6705 575.472 70.696 575.314 70.7173C574.944 70.7642 574.605 70.843 574.298 70.9538C573.996 71.0646 573.753 71.2244 573.569 71.4332C573.39 71.6378 573.301 71.9105 573.301 72.2514C573.301 72.7244 573.476 73.0824 573.825 73.3253C574.175 73.5639 574.62 73.6832 575.161 73.6832Z" fill="#0F1721"/>
</svg>
