<svg width="40" height="40" viewBox="0 0 40 40" fill="none" xmlns="http://www.w3.org/2000/svg">
<path d="M20.9022 -0.431294L20 -2.3186L19.0978 -0.431294L16.865 4.23937L13.0148 0.778684L11.459 -0.619701L11.3477 1.46921L11.0723 6.63879L6.19085 4.91493L4.21836 4.21836L4.91493 6.19085L6.63879 11.0723L1.46921 11.3477L-0.619701 11.459L0.778684 13.0148L4.23937 16.865L-0.431294 19.0978L-2.3186 20L-0.431294 20.9022L4.23937 23.135L0.778684 26.9852L-0.619701 28.541L1.46921 28.6523L6.63879 28.9277L4.91493 33.8091L4.21836 35.7816L6.19085 35.0851L11.0723 33.3612L11.3477 38.5308L11.459 40.6197L13.0148 39.2213L16.865 35.7606L19.0978 40.4313L20 42.3186L20.9022 40.4313L23.135 35.7606L26.9852 39.2213L28.541 40.6197L28.6523 38.5308L28.9277 33.3612L33.8091 35.0851L35.7816 35.7816L35.0851 33.8091L33.3612 28.9277L38.5308 28.6523L40.6197 28.541L39.2213 26.9852L35.7606 23.135L40.4313 20.9022L42.3186 20L40.4313 19.0978L35.7606 16.865L39.2213 13.0148L40.6197 11.459L38.5308 11.3477L33.3612 11.0723L35.0851 6.19085L35.7816 4.21836L33.8091 4.91493L28.9277 6.63879L28.6523 1.46921L28.541 -0.619701L26.9852 0.778684L23.135 4.23937L20.9022 -0.431294Z" fill="#FAA613" stroke="white" stroke-width="2"/>
</svg>
